SourceSansPro-Italic_1.ufo
<glyph name="Theta" format="1">
  <advance width="670"/>
  <unicode hex="0398"/>
  <outline>
    <contour>
      <point x="248" y="268" type="line"/>
      <point x="428" y="268" type="line"/>
      <point x="454" y="403" type="line"/>
      <point x="274" y="403" type="line"/>
    </contour>
    <component base="O"/>
  </outline>
</glyph>
<glyph name="Aacute" format="1">
  <advance width="562"/>
  <outline>
    <component base="A"/>
    <component base="acutecmb.cap" xOffset="246"/>
    <contour>
      <point x="281" y="0" type="move" name="ogonekUC"/>
    </contour>
  </outline>
</glyph>
<glyph name="Alpha" format="1">
	<advance width="562"/>
	<outline>
		<component base="A"/>
		<contour>
			<point name="aboveUC" x="380" y="670" type="move"/>
		</contour>
		<contour>
			<point name="belowLC" x="242" y="-20" type="move"/>
		</contour>
	</outline>
</glyph>
<glyph name="Aring" format="1">
	<advance width="562"/>
	<outline>
		<component base="A"/>
		<component base="ringcmb.cap" xOffset="246"/>
		<contour>
			<point name="ogonekUC" x="432" y="0" type="move"/>
		</contour>
	</outline>
</glyph>
<glyph name="Dcroat" format="1">
	<advance width="644"/>
	<outline>
		<component base="Eth"/>
		<contour>
			<point name="aboveUC" x="322" y="670" type="move"/>
		</contour>
		<contour>
			<point name="belowLC" x="322" y="-20" type="move"/>
		</contour>
	</outline>
</glyph>
<glyph name="Eacute" format="1">
	<advance width="536"/>
	<outline>
		<component base="E"/>
		<component base="acutecmb.cap" xOffset="226"/>
		<contour>
			<point name="ogonekUC" x="348" y="0" type="move"/>
		</contour>
	</outline>
</glyph>
<glyph name="El" format="1">
  <advance width="641"/>
  <outline>
    <contour>
      <point x="65" y="-12" type="curve" smooth="yes"/>
      <point x="174" y="-12"/>
      <point x="243" y="52"/>
      <point x="330" y="278" type="curve" smooth="yes"/>
      <point x="358" y="352"/>
      <point x="386" y="424"/>
      <point x="416" y="506" type="curve"/>
      <point x="508" y="506" type="line"/>
      <point x="407" y="0" type="line"/>
      <point x="572" y="0" type="line"/>
      <point x="702" y="650" type="line"/>
      <point x="318" y="650" type="line"/>
      <point x="273" y="532"/>
      <point x="230" y="412"/>
      <point x="182" y="296" type="curve" smooth="yes"/>
      <point x="126" y="162"/>
      <point x="103" y="148"/>
      <point x="72" y="148" type="curve" smooth="yes"/>
      <point x="60" y="148"/>
      <point x="53" y="150"/>
      <point x="46" y="152" type="curve"/>
      <point x="-14" y="-2" type="line"/>
      <point x="6" y="-10"/>
      <point x="26" y="-12"/>
    </contour>
  </outline>
</glyph>
<glyph name="Epsilon" format="1">
  <advance width="536"/>
  <outline>
    <component base="E"/>
    <contour>
      <point x="268" y="670" type="move" name="aboveUC"/>
    </contour>
  </outline>
</glyph>
<glyph name="Eta" format="1">
	<advance width="664"/>
	<outline>
		<component base="H"/>
		<contour>
			<point name="aboveUC" x="420" y="670" type="move"/>
		</contour>
		<contour>
			<point name="belowLC" x="290" y="-20" type="move"/>
		</contour>
	</outline>
</glyph>
<glyph name="Eth" format="1">
  <advance width="644"/>
  <outline>
    <contour>
      <point x="34" y="300" type="line"/>
      <point x="378" y="300" type="line"/>
      <point x="394" y="376" type="line"/>
      <point x="121" y="376" type="line"/>
      <point x="48" y="370" type="line"/>
    </contour>
    <component base="D" xOffset="18"/>
    <contour>
      <point x="322" y="670" type="move" name="aboveUC"/>
    </contour>
    <contour>
      <point x="322" y="-20" type="move" name="belowLC"/>
    </contour>
  </outline>
</glyph>
<glyph name="Euro" format="1">
	<advance width="520"/>
	<outline>
		<contour>
			<point x="294" y="-12" type="curve" smooth="yes"/>
			<point x="348" y="-12"/>
			<point x="414" y="6"/>
			<point x="484" y="66" type="curve"/>
			<point x="410" y="160" type="line"/>
			<point x="384" y="134"/>
			<point x="356" y="116"/>
			<point x="328" y="116" type="curve" smooth="yes"/>
			<point x="266" y="116"/>
			<point x="236" y="166"/>
			<point x="236" y="252" type="curve" smooth="yes"/>
			<point x="236" y="394"/>
			<point x="288" y="518"/>
			<point x="390" y="518" type="curve" smooth="yes"/>
			<point x="416" y="518"/>
			<point x="432" y="502"/>
			<point x="446" y="472" type="curve"/>
			<point x="560" y="548" type="line"/>
			<point x="526" y="606"/>
			<point x="480" y="646"/>
			<point x="406" y="646" type="curve" smooth="yes"/>
			<point x="226" y="646"/>
			<point x="76" y="484"/>
			<point x="76" y="242" type="curve" smooth="yes"/>
			<point x="76" y="78"/>
			<point x="158" y="-12"/>
		</contour>
		<contour>
			<point x="14" y="218" type="line"/>
			<point x="380" y="218" type="line"/>
			<point x="396" y="298" type="line"/>
			<point x="102" y="298" type="line"/>
			<point x="30" y="292" type="line"/>
		</contour>
		<contour>
			<point x="40" y="346" type="line"/>
			<point x="444" y="346" type="line"/>
			<point x="460" y="426" type="line"/>
			<point x="128" y="426" type="line"/>
			<point x="56" y="420" type="line"/>
		</contour>
	</outline>
</glyph>
<glyph name="F" format="1">
  <advance width="516"/>
  <outline>
    <contour>
      <point x="26" y="0" type="line"/>
      <point x="186" y="0" type="line"/>
      <point x="236" y="248" type="line"/>
      <point x="438" y="248" type="line"/>
      <point x="464" y="382" type="line"/>
      <point x="262" y="382" type="line"/>
      <point x="288" y="516" type="line"/>
      <point x="526" y="516" type="line"/>
      <point x="552" y="650" type="line"/>
      <point x="156" y="650" type="line"/>
    </contour>
    <contour>
      <point x="110" y="-20" type="move" name="belowLC"/>
    </contour>
    <contour>
      <point x="378" y="670" type="move" name="aboveUC"/>
    </contour>
    <contour>
      <point x="258" y="0" type="move" name="baseLC"/>
    </contour>
  </outline>
</glyph>
<glyph name="Gsmall" format="1">
  <advance width="503"/>
  <outline>
    <contour>
      <point x="277" y="-12" type="curve" smooth="yes"/>
      <point x="353" y="-12"/>
      <point x="428" y="16"/>
      <point x="478" y="55" type="curve"/>
      <point x="529" y="310" type="line"/>
      <point x="317" y="310" type="line"/>
      <point x="295" y="198" type="line"/>
      <point x="366" y="198" type="line"/>
      <point x="352" y="126" type="line"/>
      <point x="341" y="120"/>
      <point x="329" y="118"/>
      <point x="315" y="118" type="curve" smooth="yes"/>
      <point x="260" y="118"/>
      <point x="231" y="164"/>
      <point x="247" y="247" type="curve" smooth="yes"/>
      <point x="266" y="344"/>
      <point x="324" y="382"/>
      <point x="369" y="382" type="curve" smooth="yes"/>
      <point x="410" y="382"/>
      <point x="424" y="369"/>
      <point x="450" y="350" type="curve"/>
      <point x="543" y="452" type="line"/>
      <point x="506" y="487"/>
      <point x="466" y="512"/>
      <point x="384" y="512" type="curve" smooth="yes"/>
      <point x="260" y="512"/>
      <point x="114" y="418"/>
      <point x="80" y="247" type="curve" smooth="yes"/>
      <point x="44" y="67"/>
      <point x="151" y="-12"/>
    </contour>
    <contour>
      <point x="415" y="522" type="move" name="aboveUC"/>
    </contour>
    <contour>
      <point x="310" y="-22" type="move" name="belowLC"/>
    </contour>
  </outline>
</glyph>
<glyph name="I.a" format="1">
	<advance width="382"/>
	<outline>
		<contour>
			<point x="-6" y="0" type="line"/>
			<point x="286" y="0" type="line"/>
			<point x="314" y="134" type="line"/>
			<point x="246" y="134" type="line"/>
			<point x="324" y="516" type="line"/>
			<point x="388" y="516" type="line"/>
			<point x="416" y="650" type="line"/>
			<point x="126" y="650" type="line"/>
			<point x="98" y="516" type="line"/>
			<point x="164" y="516" type="line"/>
			<point x="86" y="134" type="line"/>
			<point x="22" y="134" type="line"/>
		</contour>
		<contour>
			<point name="belowLC" x="146" y="-20" type="move"/>
		</contour>
		<contour>
			<point name="ogonekUC" x="138" y="0" type="move"/>
		</contour>
		<contour>
			<point name="aboveUC" x="284" y="670" type="move"/>
		</contour>
	</outline>
</glyph>
<glyph name="I" format="1">
	<advance width="310"/>
	<outline>
		<contour>
			<point x="26" y="0" type="line"/>
			<point x="186" y="0" type="line"/>
			<point x="316" y="650" type="line"/>
			<point x="156" y="650" type="line"/>
		</contour>
		<contour>
			<point name="belowLC" x="100" y="-20" type="move"/>
		</contour>
		<contour>
			<point name="ogonekUC" x="100" y="0" type="move"/>
		</contour>
		<contour>
			<point name="aboveUC" x="240" y="670" type="move"/>
		</contour>
		<contour>
			<point name="baseLC" x="155" y="0" type="move"/>
		</contour>
	</outline>
</glyph>
<glyph name="Ie" format="1">
  <advance width="536"/>
  <outline>
    <component base="E"/>
    <contour>
      <point x="360" y="670" type="move" name="aboveUC"/>
    </contour>
  </outline>
</glyph>
<glyph name="Iota" format="1">
	<advance width="312"/>
	<outline>
		<component base="I"/>
		<contour>
			<point name="aboveUC" x="240" y="670" type="move"/>
		</contour>
	</outline>
</glyph>
<glyph name="Iukran" format="1">
  <advance width="310"/>
  <outline>
    <component base="I"/>
    <contour>
      <point x="240" y="670" type="move" name="aboveUC"/>
    </contour>
  </outline>
</glyph>
<glyph name="Ismall" format="1">
  <advance width="399"/>
  <outline>
    <contour>
      <point x="52" y="0" type="line"/>
      <point x="348" y="0" type="line"/>
      <point x="374" y="134" type="line"/>
      <point x="309" y="134" type="line"/>
      <point x="355" y="366" type="line"/>
      <point x="421" y="366" type="line"/>
      <point x="447" y="500" type="line"/>
      <point x="152" y="500" type="line"/>
      <point x="125" y="366" type="line"/>
      <point x="190" y="366" type="line"/>
      <point x="144" y="134" type="line"/>
      <point x="79" y="134" type="line"/>
    </contour>
    <contour>
      <point x="304" y="522" type="move" name="aboveLC"/>
    </contour>
    <contour>
      <point x="195" y="-22" type="move" name="belowLC"/>
    </contour>
    <contour>
      <point x="182" y="0" type="move" name="ogonekUC"/>
    </contour>
  </outline>
</glyph>
<glyph name="Ka" format="1">
  <advance width="612"/>
  <outline>
    <contour>
      <point x="69" y="0" type="line"/>
      <point x="234" y="0" type="line"/>
      <point x="287" y="264" type="line"/>
      <point x="341" y="264" type="line"/>
      <point x="444" y="0" type="line"/>
      <point x="616" y="0" type="line"/>
      <point x="464" y="402" type="line"/>
      <point x="315" y="402" type="line"/>
      <point x="364" y="650" type="line"/>
      <point x="199" y="650" type="line"/>
    </contour>
    <contour>
      <point x="483" y="340" type="line"/>
      <point x="568" y="452" type="line" smooth="yes"/>
      <point x="596" y="488"/>
      <point x="615" y="502"/>
      <point x="644" y="502" type="curve" smooth="yes"/>
      <point x="649" y="502"/>
      <point x="661" y="502"/>
      <point x="672" y="498" type="curve"/>
      <point x="729" y="652" type="line"/>
      <point x="716" y="660"/>
      <point x="693" y="662"/>
      <point x="674" y="662" type="curve" smooth="yes"/>
      <point x="597" y="662"/>
      <point x="539" y="630"/>
      <point x="476" y="546" type="curve" smooth="yes"/>
      <point x="347" y="374" type="line"/>
    </contour>
    <contour>
      <point x="468" y="682" type="move" name="aboveUC"/>
    </contour>
  </outline>
</glyph>
<glyph name="Kabashkir" format="1">
  <advance width="702"/>
  <outline>
    <contour>
      <point x="430" y="650" type="line"/>
      <point x="106" y="650" type="line"/>
      <point x="80" y="516" type="line"/>
      <point x="244" y="516" type="line"/>
    </contour>
    <component base="Ka" xOffset="114"/>
  </outline>
</glyph>
<glyph name="Lje" format="1">
  <advance width="934"/>
  <outline>
    <contour>
      <point x="374" y="0" type="line"/>
      <point x="600" y="0" type="line" smooth="yes"/>
      <point x="752" y="0"/>
      <point x="890" y="69"/>
      <point x="890" y="246" type="curve" smooth="yes"/>
      <point x="890" y="350"/>
      <point x="814" y="420"/>
      <point x="678" y="420" type="curve" smooth="yes"/>
      <point x="618" y="420" type="line"/>
      <point x="664" y="650" type="line"/>
      <point x="504" y="650" type="line"/>
    </contour>
    <contour>
      <point x="558" y="126" type="line"/>
      <point x="592" y="294" type="line"/>
      <point x="644" y="294" type="line" smooth="yes"/>
      <point x="704" y="294"/>
      <point x="732" y="272"/>
      <point x="732" y="222" type="curve" smooth="yes"/>
      <point x="732" y="166"/>
      <point x="692" y="126"/>
      <point x="612" y="126" type="curve" smooth="yes"/>
    </contour>
    <component base="El" xOffset="-32"/>
  </outline>
</glyph>
<glyph name="Lmiddletilde" format="1">
  <advance width="514"/>
  <outline>
    <component base="L"/>
    <component base="tildeoverlaycmb"/>
    <contour>
      <point x="257" y="670" type="move" name="aboveUC"/>
    </contour>
    <contour>
      <point x="257" y="-20" type="move" name="belowLC"/>
    </contour>
  </outline>
</glyph>
<glyph name="Lsmall" format="1">
  <advance width="422"/>
  <outline>
    <contour>
      <point x="56" y="0" type="line"/>
      <point x="397" y="0" type="line"/>
      <point x="424" y="134" type="line"/>
      <point x="248" y="134" type="line"/>
      <point x="321" y="500" type="line"/>
      <point x="156" y="500" type="line"/>
    </contour>
    <contour>
      <point x="255" y="564" type="move" name="aboveUC"/>
    </contour>
    <contour>
      <point x="238" y="-22" type="move" name="belowLC"/>
    </contour>
  </outline>
</glyph>
<glyph name="Obarcyr" format="1">
	<advance width="670"/>
	<outline>
		<component base="Fita"/>
		<contour>
			<point name="aboveUC" x="335" y="670" type="move"/>
		</contour>
	</outline>
</glyph>
<glyph name="Odieresis" format="1">
  <advance width="670"/>
  <outline>
    <component base="O"/>
    <component base="dieresiscmb.cap" xOffset="300"/>
    <contour>
      <point x="335" y="0" type="move" name="ogonekUC"/>
    </contour>
  </outline>
</glyph>
<glyph name="Oslash" format="1">
  <advance width="670"/>
  <outline>
    <contour>
      <point x="58" y="-44" type="line"/>
      <point x="726" y="638" type="line"/>
      <point x="656" y="702" type="line"/>
      <point x="-12" y="20" type="line"/>
    </contour>
    <component base="O"/>
    <contour>
      <point x="434" y="670" type="move" name="aboveUC"/>
    </contour>
    <contour>
      <point x="335" y="0" type="move" name="baseLC"/>
    </contour>
  </outline>
</glyph>
<glyph name="Rho" format="1">
  <advance width="596"/>
  <outline>
    <component base="P"/>
    <contour>
      <point x="298" y="670" type="move" name="aboveUC"/>
    </contour>
  </outline>
</glyph>
<glyph name="Rsmall" format="1">
  <advance width="524"/>
  <outline>
    <contour>
      <point x="56" y="0" type="line"/>
      <point x="221" y="0" type="line"/>
      <point x="251" y="150" type="line"/>
      <point x="291" y="150" type="line"/>
      <point x="383" y="150"/>
      <point x="508" y="198"/>
      <point x="534" y="328" type="curve" smooth="yes"/>
      <point x="560" y="458"/>
      <point x="476" y="500"/>
      <point x="364" y="500" type="curve" smooth="yes"/>
      <point x="156" y="500" type="line"/>
    </contour>
    <contour>
      <point x="274" y="265" type="line"/>
      <point x="296" y="375" type="line"/>
      <point x="320" y="375" type="line" smooth="yes"/>
      <point x="362" y="375"/>
      <point x="378" y="357"/>
      <point x="371" y="323" type="curve" smooth="yes"/>
      <point x="364" y="290"/>
      <point x="340" y="265"/>
      <point x="298" y="265" type="curve" smooth="yes"/>
    </contour>
    <contour>
      <point x="333" y="0" type="line"/>
      <point x="516" y="0" type="line"/>
      <point x="418" y="242" type="line"/>
      <point x="273" y="196" type="line"/>
    </contour>
    <contour>
      <point x="365" y="522" type="move" name="aboveUC"/>
    </contour>
    <contour>
      <point x="276" y="-22" type="move" name="belowLC"/>
    </contour>
  </outline>
</glyph>
<glyph name="Shcha" format="1">
  <advance width="910"/>
  <outline>
    <contour>
      <point x="669" y="0" type="line"/>
      <point x="694" y="0" type="line"/>
      <point x="660" y="-192" type="line"/>
      <point x="792" y="-192" type="line"/>
      <point x="852" y="22" type="line"/>
      <point x="874" y="132" type="line"/>
      <point x="695" y="132" type="line"/>
    </contour>
    <component base="Sha"/>
  </outline>
</glyph>
<glyph name="Tbar" format="1">
	<advance width="540"/>
	<outline>
		<contour>
			<point x="142" y="0" type="line"/>
			<point x="302" y="0" type="line"/>
			<point x="404" y="516" type="line"/>
			<point x="568" y="516" type="line"/>
			<point x="594" y="650" type="line"/>
			<point x="106" y="650" type="line"/>
			<point x="80" y="516" type="line"/>
			<point x="244" y="516" type="line"/>
		</contour>
		<contour>
			<point name="aboveUC" x="270" y="670" type="move"/>
		</contour>
		<contour>
			<point name="belowLC" x="270" y="-20" type="move"/>
		</contour>
	</outline>
</glyph>
<glyph name="Ustraight" format="1">
  <advance width="528"/>
  <outline>
    <component base="Y"/>
    <contour>
      <point x="264" y="670" type="move" name="aboveUC"/>
    </contour>
  </outline>
</glyph>
<glyph name="Zhe" format="1">
  <advance width="856"/>
  <outline>
    <contour>
      <point x="0" y="0" type="line"/>
      <point x="177" y="0" type="line"/>
      <point x="348" y="264" type="line"/>
      <point x="402" y="264" type="line"/>
      <point x="349" y="0" type="line"/>
      <point x="507" y="0" type="line"/>
      <point x="560" y="264" type="line"/>
      <point x="613" y="264" type="line"/>
      <point x="680" y="0" type="line"/>
      <point x="856" y="0" type="line"/>
      <point x="727" y="402" type="line"/>
      <point x="587" y="402" type="line"/>
      <point x="637" y="650" type="line"/>
      <point x="479" y="650" type="line"/>
      <point x="430" y="402" type="line"/>
      <point x="290" y="402" type="line"/>
    </contour>
    <contour>
      <point x="748" y="340" type="line"/>
      <point x="818" y="452" type="line"/>
      <point x="843" y="490"/>
      <point x="864" y="502"/>
      <point x="893" y="502" type="curve" smooth="yes"/>
      <point x="899" y="502"/>
      <point x="911" y="502"/>
      <point x="921" y="498" type="curve"/>
      <point x="979" y="652" type="line"/>
      <point x="965" y="660"/>
      <point x="943" y="662"/>
      <point x="923" y="662" type="curve" smooth="yes"/>
      <point x="847" y="662"/>
      <point x="785" y="633"/>
      <point x="725" y="546" type="curve"/>
      <point x="612" y="374" type="line"/>
    </contour>
    <contour>
      <point x="245" y="340" type="line"/>
      <point x="393" y="374" type="line"/>
      <point x="349" y="546" type="line"/>
      <point x="324" y="633"/>
      <point x="274" y="662"/>
      <point x="198" y="662" type="curve" smooth="yes"/>
      <point x="178" y="662"/>
      <point x="155" y="660"/>
      <point x="138" y="652" type="curve"/>
      <point x="134" y="498" type="line"/>
      <point x="146" y="502"/>
      <point x="158" y="502"/>
      <point x="164" y="502" type="curve" smooth="yes"/>
      <point x="192" y="502"/>
      <point x="209" y="490"/>
      <point x="219" y="452" type="curve"/>
    </contour>
    <contour>
      <point x="562" y="672" type="move" name="aboveUC"/>
    </contour>
  </outline>
</glyph>
<glyph name="acyr.a" format="1">
  <advance width="522"/>
  <outline>
    <component base="a.a"/>
    <contour>
      <point x="314" y="520" type="move" name="aboveLC"/>
    </contour>
  </outline>
</glyph>
<glyph name="adieresis.a" format="1">
	<advance width="522"/>
	<outline>
		<component base="a.a"/>
		<component base="dieresiscmb" xOffset="210"/>
		<contour>
			<point name="ogonekLC" x="320" y="0" type="move"/>
		</contour>
	</outline>
</glyph>
<glyph name="adieresis" format="1">
  <advance width="558"/>
  <outline>
    <component base="a"/>
    <component base="dieresiscmb" xOffset="230"/>
    <contour>
      <point x="279" y="0" type="move" name="ogonekLC"/>
    </contour>
  </outline>
</glyph>
<glyph name="alphalatin" format="1">
  <advance width="558"/>
  <outline>
    <component base="a"/>
    <contour>
      <point x="334" y="520" type="move" name="aboveLC"/>
    </contour>
    <contour>
      <point x="250" y="-20" type="move" name="belowLC"/>
    </contour>
    <contour>
      <point x="279" y="0" type="move" name="baseLC"/>
    </contour>
  </outline>
</glyph>
<glyph name="alphalatinturned" format="1">
	<advance width="560"/>
	<outline>
		<component base="b"/>
		<component base="p"/>
		<contour>
			<point name="aboveLC" x="280" y="520" type="move"/>
		</contour>
		<contour>
			<point name="belowLC" x="244" y="-20" type="move"/>
		</contour>
	</outline>
</glyph>
<glyph name="aring.a" format="1">
  <advance width="522"/>
  <outline>
    <component base="a.a"/>
    <component base="ringcmb" xOffset="210"/>
    <contour>
      <point x="261" y="0" type="move" name="ogonekLC"/>
    </contour>
  </outline>
</glyph>
<glyph name="arrowdownleft" format="1">
	<advance width="592"/>
	<outline>
		<contour>
			<point x="94" y="55" type="line"/>
			<point x="97" y="52" type="line"/>
			<point x="476" y="52" type="line"/>
			<point x="471" y="164" type="line"/>
			<point x="292" y="158" type="line"/>
			<point x="541" y="403" type="line"/>
			<point x="452" y="494" type="line"/>
			<point x="203" y="249" type="line"/>
			<point x="212" y="427" type="line"/>
			<point x="100" y="434" type="line"/>
		</contour>
	</outline>
</glyph>
<glyph name="arrowdownright" format="1">
	<advance width="590"/>
	<outline>
		<contour>
			<point x="109" y="52" type="line"/>
			<point x="488" y="52" type="line"/>
			<point x="491" y="55" type="line"/>
			<point x="498" y="434" type="line"/>
			<point x="386" y="427" type="line"/>
			<point x="389" y="249" type="line"/>
			<point x="148" y="494" type="line"/>
			<point x="56" y="403" type="line"/>
			<point x="297" y="158" type="line"/>
			<point x="118" y="164" type="line"/>
		</contour>
	</outline>
</glyph>
<glyph name="arrowupleft" format="1">
	<advance width="592"/>
	<outline>
		<contour>
			<point x="94" y="68" type="line"/>
			<point x="206" y="75" type="line"/>
			<point x="203" y="253" type="line"/>
			<point x="444" y="8" type="line"/>
			<point x="536" y="99" type="line"/>
			<point x="295" y="344" type="line"/>
			<point x="474" y="338" type="line"/>
			<point x="483" y="450" type="line"/>
			<point x="104" y="450" type="line"/>
			<point x="101" y="447" type="line"/>
		</contour>
	</outline>
</glyph>
<glyph name="arrowupright" format="1">
	<advance width="592"/>
	<outline>
		<contour>
			<point x="51" y="99" type="line"/>
			<point x="140" y="8" type="line"/>
			<point x="389" y="253" type="line"/>
			<point x="380" y="75" type="line"/>
			<point x="492" y="68" type="line"/>
			<point x="498" y="447" type="line"/>
			<point x="495" y="450" type="line"/>
			<point x="116" y="450" type="line"/>
			<point x="121" y="338" type="line"/>
			<point x="300" y="344" type="line"/>
		</contour>
	</outline>
</glyph>
<glyph name="asper.cap" format="1">
  <advance width="171"/>
  <outline>
    <contour>
      <point x="216" y="418" type="curve"/>
      <point x="241" y="484" type="line"/>
      <point x="223" y="490"/>
      <point x="206" y="500"/>
      <point x="211" y="528" type="curve" smooth="yes"/>
      <point x="215" y="549"/>
      <point x="238" y="565"/>
      <point x="294" y="570" type="curve"/>
      <point x="292" y="654" type="line"/>
      <point x="159" y="650"/>
      <point x="110" y="606"/>
      <point x="98" y="546" type="curve" smooth="yes"/>
      <point x="80" y="460"/>
      <point x="138" y="424"/>
    </contour>
  </outline>
</glyph>
<glyph name="asperacute.cap" format="1">
  <advance width="336"/>
  <outline>
    <contour>
      <point x="282" y="450" type="line"/>
      <point x="382" y="430" type="line"/>
      <point x="487" y="650" type="line"/>
      <point x="353" y="670" type="line"/>
    </contour>
    <contour>
      <point x="198" y="426" type="curve"/>
      <point x="223" y="492" type="line"/>
      <point x="209" y="500"/>
      <point x="198" y="509"/>
      <point x="202" y="532" type="curve" smooth="yes"/>
      <point x="207" y="553"/>
      <point x="228" y="573"/>
      <point x="277" y="578" type="curve"/>
      <point x="274" y="662" type="line"/>
      <point x="166" y="658"/>
      <point x="111" y="614"/>
      <point x="98" y="550" type="curve" smooth="yes"/>
      <point x="83" y="474"/>
      <point x="141" y="436"/>
    </contour>
  </outline>
</glyph>
<glyph name="asperacutecmb" format="1">
  <advance width="0"/>
  <outline>
    <contour>
      <point x="49" y="574" type="curve"/>
      <point x="74" y="640" type="line"/>
      <point x="59" y="643"/>
      <point x="47" y="649"/>
      <point x="51" y="668" type="curve" smooth="yes"/>
      <point x="54" y="685"/>
      <point x="74" y="696"/>
      <point x="123" y="700" type="curve"/>
      <point x="134" y="794" type="line"/>
      <point x="18" y="790"/>
      <point x="-41" y="747"/>
      <point x="-53" y="686" type="curve" smooth="yes"/>
      <point x="-68" y="611"/>
      <point x="-8" y="582"/>
    </contour>
    <contour>
      <point x="122" y="574" type="line"/>
      <point x="209" y="556" type="line"/>
      <point x="322" y="776" type="line"/>
      <point x="197" y="802" type="line"/>
    </contour>
    <contour>
      <point x="104" y="520" type="move" name="_aboveLC"/>
    </contour>
  </outline>
</glyph>
<glyph name="aspercmb" format="1">
  <advance width="0"/>
  <outline>
    <contour>
      <point x="169" y="566" type="curve"/>
      <point x="194" y="632" type="line"/>
      <point x="173" y="635"/>
      <point x="157" y="642"/>
      <point x="161" y="662" type="curve" smooth="yes"/>
      <point x="166" y="684"/>
      <point x="188" y="698"/>
      <point x="244" y="702" type="curve"/>
      <point x="254" y="796" type="line"/>
      <point x="113" y="792"/>
      <point x="59" y="743"/>
      <point x="45" y="674" type="curve" smooth="yes"/>
      <point x="30" y="602"/>
      <point x="91" y="570"/>
    </contour>
    <contour>
      <point x="104" y="520" type="move" name="_aboveLC"/>
    </contour>
  </outline>
</glyph>
<glyph name="aspergravecmb" format="1">
	<outline>
		<contour>
			<point x="40" y="574" type="curve"/>
			<point x="65" y="640" type="line"/>
			<point x="50" y="643"/>
			<point x="38" y="649"/>
			<point x="41" y="668" type="curve" smooth="yes"/>
			<point x="45" y="685"/>
			<point x="64" y="696"/>
			<point x="113" y="700" type="curve"/>
			<point x="124" y="794" type="line"/>
			<point x="8" y="790"/>
			<point x="-50" y="747"/>
			<point x="-63" y="686" type="curve" smooth="yes"/>
			<point x="-78" y="611"/>
			<point x="-17" y="582"/>
		</contour>
		<contour>
			<point x="178" y="556" type="line"/>
			<point x="272" y="574" type="line"/>
			<point x="289" y="802" type="line"/>
			<point x="153" y="776" type="line"/>
		</contour>
		<contour>
			<point name="_aboveLC" x="104" y="520" type="move"/>
		</contour>
	</outline>
</glyph>
<glyph name="aspertildecmb" format="1">
  <advance width="0"/>
  <outline>
    <contour>
      <point x="149" y="563" type="curve"/>
      <point x="169" y="615" type="line"/>
      <point x="154" y="617"/>
      <point x="145" y="620"/>
      <point x="147" y="629" type="curve" smooth="yes"/>
      <point x="149" y="639"/>
      <point x="162" y="645"/>
      <point x="212" y="649" type="curve"/>
      <point x="210" y="715" type="line"/>
      <point x="92" y="711"/>
      <point x="53" y="687"/>
      <point x="45" y="647" type="curve" smooth="yes"/>
      <point x="34" y="594"/>
      <point x="83" y="570"/>
    </contour>
    <contour>
      <point x="-7" y="744" type="curve"/>
      <point x="74" y="736" type="line"/>
      <point x="85" y="762"/>
      <point x="97" y="772"/>
      <point x="110" y="772" type="curve" smooth="yes"/>
      <point x="135" y="772"/>
      <point x="148" y="730"/>
      <point x="200" y="730" type="curve" smooth="yes"/>
      <point x="254" y="730"/>
      <point x="300" y="764"/>
      <point x="325" y="850" type="curve"/>
      <point x="244" y="858" type="line"/>
      <point x="233" y="832"/>
      <point x="222" y="822"/>
      <point x="208" y="822" type="curve" smooth="yes"/>
      <point x="183" y="822"/>
      <point x="171" y="864"/>
      <point x="119" y="864" type="curve" smooth="yes"/>
      <point x="64" y="864"/>
      <point x="19" y="830"/>
    </contour>
    <contour>
      <point x="104" y="520" type="move" name="_aboveLC"/>
    </contour>
  </outline>
</glyph>
<glyph name="aturned" format="1">
  <advance width="520"/>
  <outline>
    <contour>
      <point x="266" y="-12" type="curve" smooth="yes"/>
      <point x="336" y="-12"/>
      <point x="408" y="12"/>
      <point x="481" y="54" type="curve"/>
      <point x="446" y="166" type="line"/>
      <point x="390" y="138"/>
      <point x="354" y="124"/>
      <point x="319" y="124" type="curve" smooth="yes"/>
      <point x="271" y="124"/>
      <point x="247" y="138"/>
      <point x="250" y="174" type="curve"/>
      <point x="438" y="195"/>
      <point x="529" y="266"/>
      <point x="550" y="372" type="curve" smooth="yes"/>
      <point x="566" y="449"/>
      <point x="532" y="512"/>
      <point x="448" y="512" type="curve" smooth="yes"/>
      <point x="385" y="512"/>
      <point x="331" y="484"/>
      <point x="288" y="442" type="curve"/>
      <point x="284" y="442" type="line"/>
      <point x="284" y="500" type="line"/>
      <point x="150" y="500" type="line"/>
      <point x="95" y="226" type="line" smooth="yes"/>
      <point x="62" y="62"/>
      <point x="130" y="-12"/>
    </contour>
    <contour>
      <point x="271" y="278" type="curve"/>
      <point x="282" y="336" type="line"/>
      <point x="306" y="362"/>
      <point x="329" y="380"/>
      <point x="356" y="380" type="curve" smooth="yes"/>
      <point x="379" y="380"/>
      <point x="392" y="367"/>
      <point x="387" y="344" type="curve" smooth="yes"/>
      <point x="382" y="316"/>
      <point x="352" y="290"/>
    </contour>
    <contour>
      <point x="378" y="520" type="move" name="aboveLC"/>
    </contour>
    <contour>
      <point x="272" y="-20" type="move" name="belowLC"/>
    </contour>
  </outline>
</glyph>
<glyph name="be.srb" format="1">
  <advance width="532"/>
  <outline>
    <contour>
      <point x="255" y="-12" type="curve" smooth="yes"/>
      <point x="401" y="-12"/>
      <point x="514" y="84"/>
      <point x="542" y="224" type="curve" smooth="yes"/>
      <point x="563" y="328"/>
      <point x="528" y="394"/>
      <point x="453" y="452" type="curve" smooth="yes"/>
      <point x="390" y="501"/>
      <point x="346" y="512"/>
      <point x="350" y="530" type="curve" smooth="yes"/>
      <point x="352" y="540"/>
      <point x="358" y="544"/>
      <point x="486" y="550" type="curve" smooth="yes"/>
      <point x="531" y="552"/>
      <point x="585" y="564"/>
      <point x="617" y="582" type="curve"/>
      <point x="616" y="730" type="line"/>
      <point x="583" y="716"/>
      <point x="553" y="710"/>
      <point x="427" y="704" type="curve" smooth="yes"/>
      <point x="303" y="698"/>
      <point x="218" y="666"/>
      <point x="196" y="560" type="curve" smooth="yes"/>
      <point x="181" y="484"/>
      <point x="243" y="426"/>
      <point x="298" y="380" type="curve" smooth="yes"/>
      <point x="353" y="334"/>
      <point x="403" y="299"/>
      <point x="390" y="230" type="curve" smooth="yes"/>
      <point x="374" y="153"/>
      <point x="327" y="126"/>
      <point x="288" y="126" type="curve" smooth="yes"/>
      <point x="246" y="126"/>
      <point x="216" y="157"/>
      <point x="228" y="220" type="curve" smooth="yes"/>
      <point x="242" y="288"/>
      <point x="293" y="329"/>
      <point x="352" y="342" type="curve"/>
      <point x="293" y="418" type="line"/>
      <point x="192" y="396"/>
      <point x="101" y="332"/>
      <point x="77" y="212" type="curve" smooth="yes"/>
      <point x="49" y="74"/>
      <point x="128" y="-12"/>
    </contour>
  </outline>
</glyph>
<glyph name="breveacutecmb.cap" format="1">
	<outline>
		<contour>
			<point x="138" y="694" type="curve" smooth="yes"/>
			<point x="240" y="694"/>
			<point x="306" y="738"/>
			<point x="332" y="834" type="curve"/>
			<point x="254" y="850" type="line"/>
			<point x="235" y="804"/>
			<point x="199" y="782"/>
			<point x="154" y="782" type="curve" smooth="yes"/>
			<point x="109" y="782"/>
			<point x="81" y="804"/>
			<point x="78" y="850" type="curve"/>
			<point x="-8" y="834" type="line"/>
			<point x="-14" y="738"/>
			<point x="36" y="694"/>
		</contour>
		<contour>
			<point x="166" y="809" type="line"/>
			<point x="308" y="931" type="line"/>
			<point x="214" y="1003" type="line"/>
			<point x="92" y="869" type="line"/>
		</contour>
		<contour>
			<point name="_aboveUC" x="134" y="670" type="move"/>
		</contour>
	</outline>
</glyph>
<glyph name="brevecmb.cap" format="1">
	<outline>
		<contour>
			<point x="138" y="694" type="curve" smooth="yes"/>
			<point x="240" y="694"/>
			<point x="306" y="738"/>
			<point x="332" y="834" type="curve"/>
			<point x="244" y="850" type="line"/>
			<point x="227" y="811"/>
			<point x="196" y="792"/>
			<point x="156" y="792" type="curve" smooth="yes"/>
			<point x="116" y="792"/>
			<point x="89" y="811"/>
			<point x="88" y="850" type="curve"/>
			<point x="-8" y="834" type="line"/>
			<point x="-14" y="738"/>
			<point x="36" y="694"/>
		</contour>
		<contour>
			<point name="_aboveUC" x="134" y="670" type="move"/>
		</contour>
	</outline>
</glyph>
<glyph name="brevecmb.cyr" format="1">
	<outline>
		<contour>
			<point x="112" y="574" type="curve" smooth="yes"/>
			<point x="216" y="574"/>
			<point x="287" y="637"/>
			<point x="304" y="715" type="curve"/>
			<point x="190" y="715" type="line"/>
			<point x="178" y="675"/>
			<point x="160" y="658"/>
			<point x="128" y="658" type="curve" smooth="yes"/>
			<point x="97" y="658"/>
			<point x="85" y="675"/>
			<point x="90" y="715" type="curve"/>
			<point x="-24" y="715" type="line"/>
			<point x="-38" y="637"/>
			<point x="8" y="574"/>
		</contour>
		<contour>
			<point name="_aboveLC" x="104" y="520" type="move"/>
		</contour>
		<contour>
			<point name="aboveLC" x="0" y="520" type="move"/>
		</contour>
	</outline>
</glyph>
<glyph name="brevecmb.cyrcap" format="1">
  <advance width="0"/>
  <outline>
    <contour>
      <point x="138" y="697" type="curve" smooth="yes"/>
      <point x="255" y="697"/>
      <point x="317" y="759"/>
      <point x="335" y="831" type="curve"/>
      <point x="210" y="831" type="line"/>
      <point x="200" y="794"/>
      <point x="180" y="775"/>
      <point x="154" y="775" type="curve" smooth="yes"/>
      <point x="128" y="775"/>
      <point x="115" y="794"/>
      <point x="120" y="831" type="curve"/>
      <point x="-5" y="831" type="line"/>
      <point x="-16" y="759"/>
      <point x="21" y="697"/>
    </contour>
    <contour>
      <point x="134" y="670" type="move" name="_aboveUC"/>
    </contour>
  </outline>
</glyph>
<glyph name="breveinvertedcmb.cap" format="1">
  <advance width="0"/>
  <outline>
    <contour>
      <point x="63" y="690" type="line"/>
      <point x="79" y="729"/>
      <point x="111" y="748"/>
      <point x="149" y="748" type="curve" smooth="yes"/>
      <point x="188" y="748"/>
      <point x="212" y="729"/>
      <point x="213" y="690" type="curve"/>
      <point x="304" y="706" type="line"/>
      <point x="314" y="802"/>
      <point x="267" y="846"/>
      <point x="169" y="846" type="curve" smooth="yes"/>
      <point x="71" y="846"/>
      <point x="7" y="802"/>
      <point x="-22" y="706" type="curve"/>
    </contour>
    <contour>
      <point x="134" y="670" type="move" name="_aboveUC"/>
    </contour>
  </outline>
</glyph>
<glyph name="breveinvertedcmb" format="1">
  <advance width="0"/>
  <outline>
    <contour>
      <point x="38" y="564" type="line"/>
      <point x="51" y="604"/>
      <point x="81" y="634"/>
      <point x="127" y="634" type="curve" smooth="yes"/>
      <point x="173" y="634"/>
      <point x="190" y="604"/>
      <point x="188" y="564" type="curve"/>
      <point x="283" y="580" type="line"/>
      <point x="300" y="674"/>
      <point x="260" y="740"/>
      <point x="148" y="740" type="curve" smooth="yes"/>
      <point x="35" y="740"/>
      <point x="-30" y="674"/>
      <point x="-51" y="580" type="curve"/>
    </contour>
    <contour>
      <point x="104" y="522" type="move" name="_aboveLC"/>
    </contour>
  </outline>
</glyph>
<glyph name="breveinverteddoublecmb" format="1">
  <advance width="0"/>
  <outline>
    <contour>
      <point x="-292" y="530" type="line"/>
      <point x="-152" y="602"/>
      <point x="11" y="622"/>
      <point x="124" y="622" type="curve" smooth="yes"/>
      <point x="238" y="622"/>
      <point x="393" y="602"/>
      <point x="503" y="530" type="curve"/>
      <point x="561" y="608" type="line"/>
      <point x="445" y="692"/>
      <point x="296" y="730"/>
      <point x="146" y="730" type="curve" smooth="yes"/>
      <point x="-4" y="730"/>
      <point x="-169" y="692"/>
      <point x="-318" y="608" type="curve"/>
    </contour>
  </outline>
</glyph>
<glyph name="brevetildecmb.cap" format="1">
  <advance width="0"/>
  <outline>
    <contour>
      <point x="138" y="694" type="curve" smooth="yes"/>
      <point x="240" y="694"/>
      <point x="298" y="736"/>
      <point x="320" y="808" type="curve"/>
      <point x="242" y="822" type="line"/>
      <point x="228" y="796"/>
      <point x="203" y="774"/>
      <point x="152" y="774" type="curve" smooth="yes"/>
      <point x="100" y="774"/>
      <point x="83" y="796"/>
      <point x="78" y="822" type="curve"/>
      <point x="-4" y="808" type="line"/>
      <point x="-10" y="736"/>
      <point x="35" y="694"/>
    </contour>
    <contour>
      <point x="222" y="842" type="curve" smooth="yes"/>
      <point x="278" y="842"/>
      <point x="321" y="875"/>
      <point x="340" y="960" type="curve"/>
      <point x="262" y="970" type="line"/>
      <point x="254" y="944"/>
      <point x="242" y="934"/>
      <point x="226" y="934" type="curve" smooth="yes"/>
      <point x="204" y="934"/>
      <point x="180" y="976"/>
      <point x="128" y="976" type="curve" smooth="yes"/>
      <point x="72" y="976"/>
      <point x="28" y="943"/>
      <point x="10" y="858" type="curve"/>
      <point x="88" y="848" type="line"/>
      <point x="96" y="874"/>
      <point x="108" y="884"/>
      <point x="124" y="884" type="curve" smooth="yes"/>
      <point x="146" y="884"/>
      <point x="170" y="842"/>
    </contour>
    <contour>
      <point x="134" y="670" type="move" name="_aboveUC"/>
    </contour>
  </outline>
</glyph>
<glyph name="bridgebelowcmb" format="1">
  <advance width="0"/>
  <outline>
    <contour>
      <point x="3" y="-218" type="line"/>
      <point x="81" y="-218" type="line"/>
      <point x="110" y="-76" type="line"/>
      <point x="-140" y="-76" type="line"/>
      <point x="-168" y="-218" type="line"/>
      <point x="-90" y="-218" type="line"/>
      <point x="-77" y="-156" type="line"/>
      <point x="15" y="-156" type="line"/>
    </contour>
    <contour>
      <point x="-4" y="-22" type="move" name="_belowLC"/>
    </contour>
  </outline>
</glyph>
<glyph name="bridgeinvertedbelowcmb" format="1">
	<outline>
		<contour>
			<point x="-167" y="-210" type="line"/>
			<point x="83" y="-210" type="line"/>
			<point x="111" y="-68" type="line"/>
			<point x="32" y="-68" type="line"/>
			<point x="20" y="-130" type="line"/>
			<point x="-72" y="-130" type="line"/>
			<point x="-60" y="-68" type="line"/>
			<point x="-138" y="-68" type="line"/>
		</contour>
		<contour>
			<point name="_belowLC" x="-4" y="-20" type="move"/>
		</contour>
	</outline>
</glyph>
<glyph name="caron.a" format="1">
  <advance width="0"/>
  <outline>
    <contour>
      <point x="16" y="548" type="line"/>
      <point x="84" y="548" type="line"/>
      <point x="140" y="700" type="line"/>
      <point x="156" y="774" type="line"/>
      <point x="56" y="774" type="line"/>
    </contour>
  </outline>
</glyph>
<glyph name="caroncmb.cap" format="1">
  <advance width="0"/>
  <outline>
    <contour>
      <point x="54" y="700" type="line"/>
      <point x="242" y="700" type="line"/>
      <point x="346" y="804" type="line"/>
      <point x="280" y="854" type="line"/>
      <point x="156" y="774" type="line"/>
      <point x="152" y="774" type="line"/>
      <point x="68" y="854" type="line"/>
      <point x="-10" y="810" type="line"/>
    </contour>
    <contour>
      <point x="134" y="670" type="move" name="_aboveUC"/>
    </contour>
  </outline>
</glyph>
<glyph name="cedi" format="1">
	<advance width="520"/>
	<outline>
		<contour>
			<point x="272" y="-12" type="curve" smooth="yes"/>
			<point x="326" y="-12"/>
			<point x="392" y="6"/>
			<point x="462" y="66" type="curve"/>
			<point x="388" y="160" type="line"/>
			<point x="362" y="134"/>
			<point x="334" y="116"/>
			<point x="306" y="116" type="curve" smooth="yes"/>
			<point x="244" y="116"/>
			<point x="214" y="166"/>
			<point x="214" y="252" type="curve" smooth="yes"/>
			<point x="214" y="392"/>
			<point x="266" y="518"/>
			<point x="368" y="518" type="curve" smooth="yes"/>
			<point x="404" y="518"/>
			<point x="424" y="500"/>
			<point x="444" y="462" type="curve"/>
			<point x="554" y="534" type="line"/>
			<point x="516" y="598"/>
			<point x="468" y="646"/>
			<point x="384" y="646" type="curve" smooth="yes"/>
			<point x="204" y="646"/>
			<point x="54" y="484"/>
			<point x="54" y="242" type="curve" smooth="yes"/>
			<point x="54" y="78"/>
			<point x="136" y="-12"/>
		</contour>
		<contour>
			<point x="202" y="-110" type="line"/>
			<point x="288" y="-110" type="line"/>
			<point x="458" y="732" type="line"/>
			<point x="372" y="732" type="line"/>
		</contour>
	</outline>
</glyph>
<glyph name="circumflexacute.cap" format="1">
  <advance width="0"/>
  <outline>
    <contour>
      <point x="44" y="680" type="line"/>
      <point x="148" y="752" type="line"/>
      <point x="152" y="752" type="line"/>
      <point x="232" y="680" type="line"/>
      <point x="306" y="724" type="line"/>
      <point x="236" y="828" type="line"/>
      <point x="88" y="828" type="line"/>
      <point x="-18" y="724" type="line"/>
    </contour>
    <contour>
      <point x="302" y="761" type="line"/>
      <point x="420" y="823" type="line"/>
      <point x="378" y="895" type="line"/>
      <point x="262" y="821" type="line"/>
    </contour>
    <contour>
      <point x="134" y="670" type="move" name="_aboveUC"/>
    </contour>
  </outline>
</glyph>
<glyph name="circumflexacutecmb.cap" format="1">
  <advance width="0"/>
  <outline>
    <contour>
      <point x="44" y="680" type="line"/>
      <point x="148" y="752" type="line"/>
      <point x="152" y="752" type="line"/>
      <point x="232" y="680" type="line"/>
      <point x="306" y="724" type="line"/>
      <point x="236" y="828" type="line"/>
      <point x="88" y="828" type="line"/>
      <point x="-18" y="724" type="line"/>
    </contour>
    <contour>
      <point x="302" y="761" type="line"/>
      <point x="420" y="823" type="line"/>
      <point x="378" y="895" type="line"/>
      <point x="262" y="821" type="line"/>
    </contour>
    <contour>
      <point x="134" y="670" type="move" name="_aboveUC"/>
    </contour>
  </outline>
</glyph>
<glyph name="circumflexbreve.cap" format="1">
  <advance width="0"/>
  <outline>
    <contour>
      <point x="44" y="680" type="line"/>
      <point x="148" y="752" type="line"/>
      <point x="152" y="752" type="line"/>
      <point x="232" y="680" type="line"/>
      <point x="304" y="724" type="line"/>
      <point x="236" y="818" type="line"/>
      <point x="88" y="818" type="line"/>
      <point x="-12" y="724" type="line"/>
    </contour>
    <contour>
      <point x="168" y="854" type="curve" smooth="yes"/>
      <point x="270" y="854"/>
      <point x="330" y="896"/>
      <point x="350" y="968" type="curve"/>
      <point x="272" y="982" type="line"/>
      <point x="259" y="956"/>
      <point x="234" y="934"/>
      <point x="182" y="934" type="curve" smooth="yes"/>
      <point x="130" y="934"/>
      <point x="113" y="956"/>
      <point x="108" y="982" type="curve"/>
      <point x="26" y="968" type="line"/>
      <point x="22" y="896"/>
      <point x="66" y="854"/>
    </contour>
    <contour>
      <point x="134" y="670" type="move" name="_aboveUC"/>
    </contour>
  </outline>
</glyph>
<glyph name="circumflexcmb.cap" format="1">
	<outline>
		<contour>
			<point x="26" y="680" type="line"/>
			<point x="150" y="760" type="line"/>
			<point x="154" y="760" type="line"/>
			<point x="238" y="680" type="line"/>
			<point x="316" y="724" type="line"/>
			<point x="252" y="834" type="line"/>
			<point x="64" y="834" type="line"/>
			<point x="-40" y="730" type="line"/>
		</contour>
		<contour>
			<point name="_aboveUC" x="134" y="670" type="move"/>
		</contour>
	</outline>
</glyph>
<glyph name="circumflextildecmb.cap" format="1">
  <advance width="0"/>
  <outline>
    <contour>
      <point x="42" y="680" type="line"/>
      <point x="146" y="742" type="line"/>
      <point x="150" y="742" type="line"/>
      <point x="230" y="680" type="line"/>
      <point x="306" y="724" type="line"/>
      <point x="234" y="818" type="line"/>
      <point x="86" y="818" type="line"/>
      <point x="-18" y="724" type="line"/>
    </contour>
    <contour>
      <point x="222" y="838" type="curve" smooth="yes"/>
      <point x="278" y="838"/>
      <point x="322" y="871"/>
      <point x="340" y="956" type="curve"/>
      <point x="262" y="966" type="line"/>
      <point x="254" y="940"/>
      <point x="242" y="930"/>
      <point x="226" y="930" type="curve" smooth="yes"/>
      <point x="204" y="930"/>
      <point x="182" y="972"/>
      <point x="130" y="972" type="curve" smooth="yes"/>
      <point x="74" y="972"/>
      <point x="30" y="939"/>
      <point x="10" y="854" type="curve"/>
      <point x="90" y="844" type="line"/>
      <point x="98" y="870"/>
      <point x="110" y="880"/>
      <point x="126" y="880" type="curve" smooth="yes"/>
      <point x="148" y="880"/>
      <point x="170" y="838"/>
    </contour>
    <contour>
      <point x="134" y="670" type="move" name="_aboveUC"/>
    </contour>
  </outline>
</glyph>
<glyph name="clickalveolar" format="1">
  <advance width="332"/>
  <outline>
    <contour>
      <point x="22" y="330" type="line"/>
      <point x="404" y="330" type="line"/>
      <point x="420" y="410" type="line"/>
      <point x="111" y="410" type="line"/>
      <point x="36" y="404" type="line"/>
    </contour>
    <contour>
      <point x="-19" y="124" type="line"/>
      <point x="363" y="124" type="line"/>
      <point x="379" y="204" type="line"/>
      <point x="69" y="204" type="line"/>
      <point x="-5" y="198" type="line"/>
    </contour>
    <contour>
      <point x="32" y="-176" type="line"/>
      <point x="190" y="-176" type="line"/>
      <point x="364" y="696" type="line"/>
      <point x="206" y="696" type="line"/>
    </contour>
  </outline>
</glyph>
<glyph name="clickbilabial" format="1">
	<advance width="545"/>
	<outline>
		<contour>
			<point x="270" y="-12" type="curve" smooth="yes"/>
			<point x="405" y="-12"/>
			<point x="525" y="110"/>
			<point x="573" y="350" type="curve" smooth="yes"/>
			<point x="622" y="595"/>
			<point x="549" y="708"/>
			<point x="414" y="708" type="curve" smooth="yes"/>
			<point x="280" y="708"/>
			<point x="161" y="596"/>
			<point x="112" y="350" type="curve" smooth="yes"/>
			<point x="64" y="110"/>
			<point x="136" y="-12"/>
		</contour>
		<contour>
			<point x="298" y="126" type="curve" smooth="yes"/>
			<point x="259" y="126"/>
			<point x="227" y="174"/>
			<point x="262" y="350" type="curve" smooth="yes"/>
			<point x="297" y="524"/>
			<point x="348" y="570"/>
			<point x="387" y="570" type="curve" smooth="yes"/>
			<point x="425" y="570"/>
			<point x="458" y="524"/>
			<point x="423" y="350" type="curve" smooth="yes"/>
			<point x="388" y="174"/>
			<point x="336" y="126"/>
		</contour>
		<contour>
			<point x="329" y="282" type="curve" smooth="yes"/>
			<point x="365" y="282"/>
			<point x="402" y="313"/>
			<point x="410" y="351" type="curve" smooth="yes"/>
			<point x="418" y="389"/>
			<point x="393" y="420"/>
			<point x="357" y="420" type="curve" smooth="yes"/>
			<point x="320" y="420"/>
			<point x="283" y="389"/>
			<point x="276" y="351" type="curve" smooth="yes"/>
			<point x="268" y="313"/>
			<point x="293" y="282"/>
		</contour>
	</outline>
</glyph>
<glyph name="colonmonetary" format="1">
  <advance width="520"/>
  <outline>
    <contour>
      <point x="272" y="-12" type="curve" smooth="yes"/>
      <point x="329" y="-12"/>
      <point x="398" y="6"/>
      <point x="472" y="66" type="curve"/>
      <point x="398" y="160" type="line"/>
      <point x="369" y="134"/>
      <point x="337" y="116"/>
      <point x="306" y="116" type="curve" smooth="yes"/>
      <point x="244" y="116"/>
      <point x="208" y="166"/>
      <point x="208" y="252" type="curve" smooth="yes"/>
      <point x="208" y="392"/>
      <point x="266.0" y="518.0"/>
      <point x="368" y="518" type="curve" smooth="yes"/>
      <point x="414" y="518"/>
      <point x="438" y="497"/>
      <point x="464" y="452" type="curve"/>
      <point x="574" y="524" type="line"/>
      <point x="532" y="594"/>
      <point x="478" y="646"/>
      <point x="384" y="646" type="curve" smooth="yes"/>
      <point x="204.0" y="646.0"/>
      <point x="54" y="484"/>
      <point x="54" y="242" type="curve" smooth="yes"/>
      <point x="54" y="78"/>
      <point x="136" y="-12"/>
    </contour>
    <contour>
      <point x="120" y="-110" type="line"/>
      <point x="172" y="-110" type="line"/>
      <point x="442" y="754" type="line"/>
      <point x="390" y="754" type="line"/>
    </contour>
    <contour>
      <point x="206" y="-110" type="line"/>
      <point x="258" y="-110" type="line"/>
      <point x="528" y="754" type="line"/>
      <point x="476" y="754" type="line"/>
    </contour>
  </outline>
</glyph>
<glyph name="dezh" format="1">
  <advance width="928"/>
  <outline>
    <contour>
      <point x="604" y="-188" type="curve" smooth="yes"/>
      <point x="760" y="-188"/>
      <point x="872" y="-56"/>
      <point x="872" y="90" type="curve" smooth="yes"/>
      <point x="872" y="166"/>
      <point x="820" y="220"/>
      <point x="748" y="234" type="curve"/>
      <point x="916" y="408" type="line"/>
      <point x="934" y="500" type="line"/>
      <point x="498" y="500" type="line"/>
      <point x="474" y="376" type="line"/>
      <point x="722" y="376" type="line"/>
      <point x="546" y="198" type="line"/>
      <point x="582" y="118" type="line"/>
      <point x="605" y="126"/>
      <point x="613" y="128"/>
      <point x="638" y="128" type="curve" smooth="yes"/>
      <point x="676" y="128"/>
      <point x="710" y="106"/>
      <point x="710" y="58" type="curve" smooth="yes"/>
      <point x="710" y="-16"/>
      <point x="668" y="-62"/>
      <point x="610" y="-62" type="curve" smooth="yes"/>
      <point x="556" y="-62"/>
      <point x="520" y="-42"/>
      <point x="492" y="-12" type="curve"/>
      <point x="410" y="-104" type="line"/>
      <point x="446" y="-150"/>
      <point x="512" y="-188"/>
    </contour>
    <component base="d"/>
    <contour>
      <point x="464" y="730" type="move" name="aboveUC"/>
    </contour>
    <contour>
      <point x="464" y="-119" type="move" name="belowLC"/>
    </contour>
  </outline>
</glyph>
<glyph name="dialytikagravecmb" format="1">
  <advance width="0"/>
  <outline>
    <contour>
      <point x="-19" y="580" type="curve" smooth="yes"/>
      <point x="14" y="580"/>
      <point x="46" y="604"/>
      <point x="53" y="642" type="curve" smooth="yes"/>
      <point x="61" y="680"/>
      <point x="39" y="704"/>
      <point x="6" y="704" type="curve" smooth="yes"/>
      <point x="-26" y="704"/>
      <point x="-58" y="680"/>
      <point x="-66" y="642" type="curve" smooth="yes"/>
      <point x="-73" y="604"/>
      <point x="-51" y="580"/>
    </contour>
    <contour>
      <point x="96" y="568" type="line"/>
      <point x="170" y="584" type="line"/>
      <point x="183" y="812" type="line"/>
      <point x="67" y="788" type="line"/>
    </contour>
    <contour>
      <point x="250" y="580" type="curve" smooth="yes"/>
      <point x="283" y="580"/>
      <point x="315" y="604"/>
      <point x="322" y="642" type="curve" smooth="yes"/>
      <point x="330" y="680"/>
      <point x="308" y="704"/>
      <point x="275" y="704" type="curve" smooth="yes"/>
      <point x="242" y="704"/>
      <point x="211" y="680"/>
      <point x="203" y="642" type="curve" smooth="yes"/>
      <point x="196" y="604"/>
      <point x="218" y="580"/>
    </contour>
    <contour>
      <point x="104" y="520" type="move" name="_aboveLC"/>
    </contour>
  </outline>
</glyph>
<glyph name="dieresiscmb.cap" format="1">
  <advance width="0"/>
  <outline>
    <contour>
      <point x="34" y="696" type="curve" smooth="yes"/>
      <point x="82" y="696"/>
      <point x="116" y="740"/>
      <point x="116" y="780" type="curve" smooth="yes"/>
      <point x="116" y="820"/>
      <point x="86" y="844"/>
      <point x="52" y="844" type="curve" smooth="yes"/>
      <point x="4" y="844"/>
      <point x="-30" y="800"/>
      <point x="-30" y="760" type="curve" smooth="yes"/>
      <point x="-30" y="720"/>
      <point x="-2" y="696"/>
    </contour>
    <contour>
      <point x="254" y="696" type="curve" smooth="yes"/>
      <point x="302" y="696"/>
      <point x="336" y="740"/>
      <point x="336" y="780" type="curve" smooth="yes"/>
      <point x="336" y="820"/>
      <point x="306" y="844"/>
      <point x="272" y="844" type="curve" smooth="yes"/>
      <point x="224" y="844"/>
      <point x="190" y="800"/>
      <point x="190" y="760" type="curve" smooth="yes"/>
      <point x="190" y="720"/>
      <point x="218" y="696"/>
    </contour>
    <contour>
      <point x="134" y="670" type="move" name="_aboveUC"/>
    </contour>
  </outline>
</glyph>
<glyph name="dieresisgravecmb.cap" format="1">
  <advance width="0"/>
  <outline>
    <contour>
      <point x="36" y="696" type="curve" smooth="yes"/>
      <point x="78" y="696"/>
      <point x="108" y="734"/>
      <point x="108" y="770" type="curve" smooth="yes"/>
      <point x="108" y="804"/>
      <point x="84" y="826"/>
      <point x="52" y="826" type="curve" smooth="yes"/>
      <point x="10" y="826"/>
      <point x="-20" y="788"/>
      <point x="-20" y="752" type="curve" smooth="yes"/>
      <point x="-20" y="718"/>
      <point x="4" y="696"/>
    </contour>
    <contour>
      <point x="142" y="825" type="line"/>
      <point x="224" y="862" type="line"/>
      <point x="156" y="1022" type="line"/>
      <point x="38" y="968" type="line"/>
    </contour>
    <contour>
      <point x="250" y="696" type="curve" smooth="yes"/>
      <point x="292" y="696"/>
      <point x="322" y="734"/>
      <point x="322" y="770" type="curve" smooth="yes"/>
      <point x="322" y="804"/>
      <point x="298" y="826"/>
      <point x="266" y="826" type="curve" smooth="yes"/>
      <point x="224" y="826"/>
      <point x="194" y="788"/>
      <point x="194" y="752" type="curve" smooth="yes"/>
      <point x="194" y="718"/>
      <point x="218" y="696"/>
    </contour>
    <contour>
      <point x="134" y="670" type="move" name="_aboveUC"/>
    </contour>
  </outline>
</glyph>
<glyph name="dieresistildecmb" format="1">
	<outline>
		<contour>
			<point x="3" y="564" type="curve" smooth="yes"/>
			<point x="42" y="564"/>
			<point x="75" y="594"/>
			<point x="82" y="632" type="curve" smooth="yes"/>
			<point x="90" y="670"/>
			<point x="69" y="700"/>
			<point x="30" y="700" type="curve" smooth="yes"/>
			<point x="-8" y="700"/>
			<point x="-41" y="670"/>
			<point x="-48" y="632" type="curve" smooth="yes"/>
			<point x="-56" y="594"/>
			<point x="-35" y="564"/>
		</contour>
		<contour>
			<point x="222" y="564" type="curve" smooth="yes"/>
			<point x="261" y="564"/>
			<point x="293" y="594"/>
			<point x="301" y="632" type="curve" smooth="yes"/>
			<point x="309" y="670"/>
			<point x="288" y="700"/>
			<point x="249" y="700" type="curve" smooth="yes"/>
			<point x="211" y="700"/>
			<point x="178" y="670"/>
			<point x="170" y="632" type="curve" smooth="yes"/>
			<point x="163" y="594"/>
			<point x="184" y="564"/>
		</contour>
		<contour>
			<point x="207" y="718" type="curve" smooth="yes"/>
			<point x="255" y="718"/>
			<point x="301" y="756"/>
			<point x="323" y="838" type="curve"/>
			<point x="255" y="846" type="line"/>
			<point x="244" y="820"/>
			<point x="231" y="810"/>
			<point x="216" y="810" type="curve" smooth="yes"/>
			<point x="185" y="810"/>
			<point x="168" y="852"/>
			<point x="107" y="852" type="curve" smooth="yes"/>
			<point x="59" y="852"/>
			<point x="13" y="814"/>
			<point x="-9" y="732" type="curve"/>
			<point x="58" y="724" type="line"/>
			<point x="69" y="750"/>
			<point x="83" y="760"/>
			<point x="98" y="760" type="curve" smooth="yes"/>
			<point x="128" y="760"/>
			<point x="145" y="718"/>
		</contour>
		<contour>
			<point name="_aboveLC" x="104" y="520" type="move"/>
		</contour>
	</outline>
</glyph>
<glyph name="digamma" format="1">
	<advance width="419"/>
	<outline>
		<contour>
			<point x="-23" y="-176" type="line"/>
			<point x="137" y="-176" type="line"/>
			<point x="153" y="-67"/>
			<point x="167" y="22"/>
			<point x="187" y="122" type="curve"/>
			<point x="355" y="122" type="line"/>
			<point x="376" y="226" type="line"/>
			<point x="206" y="226" type="line"/>
			<point x="234" y="374" type="line"/>
			<point x="425" y="374" type="line"/>
			<point x="449" y="498" type="line"/>
			<point x="112" y="498" type="line"/>
		</contour>
		<contour>
			<point name="aboveLC" x="302" y="520" type="move"/>
		</contour>
	</outline>
</glyph>
<glyph name="dollar" format="1">
  <advance width="520"/>
  <outline>
    <contour>
      <point x="216" y="-12" type="curve" smooth="yes"/>
      <point x="358" y="-12"/>
      <point x="450" y="74"/>
      <point x="450" y="196" type="curve" smooth="yes"/>
      <point x="450.0" y="348.275362319"/>
      <point x="252.0" y="379.115942029"/>
      <point x="252" y="462" type="curve" smooth="yes"/>
      <point x="252" y="494"/>
      <point x="274" y="518"/>
      <point x="314" y="518" type="curve" smooth="yes"/>
      <point x="348" y="518"/>
      <point x="384" y="496"/>
      <point x="410" y="462" type="curve"/>
      <point x="510" y="552" type="line"/>
      <point x="456" y="614"/>
      <point x="392" y="646"/>
      <point x="318" y="646" type="curve" smooth="yes"/>
      <point x="184" y="646"/>
      <point x="94" y="562"/>
      <point x="94" y="444" type="curve" smooth="yes"/>
      <point x="94.0" y="299.395683453"/>
      <point x="292.0" y="268.54676259"/>
      <point x="292" y="176" type="curve" smooth="yes"/>
      <point x="292" y="138"/>
      <point x="268" y="116"/>
      <point x="220" y="116" type="curve" smooth="yes"/>
      <point x="172" y="116"/>
      <point x="130" y="148"/>
      <point x="100" y="186" type="curve"/>
      <point x="2" y="90" type="line"/>
      <point x="58" y="24"/>
      <point x="140" y="-12"/>
    </contour>
    <contour>
      <point x="132" y="-110" type="line"/>
      <point x="236" y="-110" type="line"/>
      <point x="270" y="54" type="line"/>
      <point x="164" y="54" type="line"/>
    </contour>
    <contour>
      <point x="276" y="596" type="line"/>
      <point x="380" y="596" type="line"/>
      <point x="408" y="744" type="line"/>
      <point x="304" y="744" type="line"/>
    </contour>
  </outline>
</glyph>
<glyph name="dotaccentcmb.cap" format="1">
  <advance width="0"/>
  <outline>
    <contour>
      <point x="150" y="698" type="curve" smooth="yes"/>
      <point x="204" y="698"/>
      <point x="246" y="736"/>
      <point x="246" y="788" type="curve" smooth="yes"/>
      <point x="246" y="836"/>
      <point x="204" y="862"/>
      <point x="162" y="862" type="curve" smooth="yes"/>
      <point x="108" y="862"/>
      <point x="66" y="820"/>
      <point x="66" y="772" type="curve" smooth="yes"/>
      <point x="66" y="722"/>
      <point x="108" y="698"/>
    </contour>
    <contour>
      <point x="134" y="670" type="move" name="_aboveUC"/>
    </contour>
  </outline>
</glyph>
<glyph name="dotbelowcmb" format="1">
	<outline>
		<component base="dotaccentcmb" xOffset="-162" yOffset="-800"/>
		<contour>
			<point name="_belowLC" x="-4" y="-20" type="move"/>
		</contour>
	</outline>
</glyph>
<glyph name="dotlessi" format="1">
	<advance width="276"/>
	<outline>
		<contour>
			<point x="8" y="0" type="line"/>
			<point x="168" y="0" type="line"/>
			<point x="268" y="500" type="line"/>
			<point x="108" y="500" type="line"/>
		</contour>
		<contour>
			<point name="aboveLC" x="198" y="520" type="move"/>
		</contour>
		<contour>
			<point name="belowLC" x="94" y="-20" type="move"/>
		</contour>
		<contour>
			<point name="ogonekLC" x="80" y="0" type="move"/>
		</contour>
		<contour>
			<point name="baseLC" x="138" y="0" type="move"/>
		</contour>
	</outline>
</glyph>
<glyph name="dotlessjstroke" format="1">
  <advance width="326"/>
  <outline>
    <contour>
      <point x="57" y="220" type="line"/>
      <point x="353" y="220" type="line"/>
      <point x="369" y="300" type="line"/>
      <point x="146" y="300" type="line"/>
      <point x="72" y="294" type="line"/>
    </contour>
    <component base="dotlessj"/>
    <contour>
      <point x="198" y="520" type="move" name="aboveLC"/>
    </contour>
    <contour>
      <point x="163" y="-119" type="move" name="belowLC"/>
    </contour>
  </outline>
</glyph>
<glyph name="dotlessjstrokehook" format="1">
  <advance width="326"/>
  <outline>
    <contour>
      <point x="57" y="220" type="line"/>
      <point x="353" y="220" type="line"/>
      <point x="369" y="300" type="line"/>
      <point x="146" y="300" type="line"/>
      <point x="72" y="294" type="line"/>
    </contour>
    <component base="esh" xScale="0.96"/>
  </outline>
</glyph>
<glyph name="downtackbelowcmb" format="1">
  <advance width="0"/>
  <outline>
    <contour>
      <point x="76" y="-156" type="line"/>
      <point x="92" y="-76" type="line"/>
      <point x="-123" y="-76" type="line"/>
      <point x="-139" y="-156" type="line"/>
      <point x="-73" y="-156" type="line"/>
      <point x="-94" y="-260" type="line"/>
      <point x="-10" y="-260" type="line"/>
      <point x="11" y="-156" type="line"/>
    </contour>
    <contour>
      <point x="-4" y="-22" type="move" name="_belowLC"/>
    </contour>
  </outline>
</glyph>
<glyph name="e" format="1">
  <advance width="502"/>
  <outline>
    <contour>
      <point x="234" y="-12" type="curve" smooth="yes"/>
      <point x="316" y="-12"/>
      <point x="380" y="12"/>
      <point x="420" y="40" type="curve"/>
      <point x="364" y="140" type="line"/>
      <point x="342" y="124"/>
      <point x="308" y="108"/>
      <point x="280" y="108" type="curve" smooth="yes"/>
      <point x="218" y="108"/>
      <point x="174" y="136"/>
      <point x="174" y="208" type="curve" smooth="yes"/>
      <point x="174" y="326"/>
      <point x="232" y="390"/>
      <point x="288" y="390" type="curve" smooth="yes"/>
      <point x="330" y="390"/>
      <point x="344" y="364"/>
      <point x="344" y="330" type="curve" smooth="yes"/>
      <point x="344" y="318"/>
      <point x="342" y="306"/>
      <point x="340" y="298" type="curve"/>
      <point x="158" y="298" type="line"/>
      <point x="146" y="202" type="line"/>
      <point x="446" y="202" type="line"/>
      <point x="454" y="216"/>
      <point x="474" y="272"/>
      <point x="474" y="322" type="curve" smooth="yes"/>
      <point x="474" y="426"/>
      <point x="430" y="512"/>
      <point x="308" y="512" type="curve" smooth="yes"/>
      <point x="174" y="512"/>
      <point x="26" y="388"/>
      <point x="26" y="204" type="curve" smooth="yes"/>
      <point x="26" y="70"/>
      <point x="112" y="-12"/>
    </contour>
    <contour>
      <point x="326.0" y="520.0" type="move" name="aboveLC"/>
    </contour>
    <contour>
      <point x="224.0" y="-20.0" type="move" name="belowLC"/>
    </contour>
    <contour>
      <point x="290.0" y="0.0" type="move" name="ogonekLC"/>
    </contour>
  </outline>
</glyph>
<glyph name="eight.cap" format="1">
  <advance width="520"/>
  <outline>
    <contour>
      <point x="238" y="-12" type="curve" smooth="yes"/>
      <point x="364" y="-12"/>
      <point x="474" y="62"/>
      <point x="474" y="178" type="curve" smooth="yes"/>
      <point x="474.0" y="245.506849315"/>
      <point x="447.968446981" y="300.021035346"/>
      <point x="400" y="332" type="curve"/>
      <point x="400" y="336" type="line"/>
      <point x="469.365230778" y="372.148078011"/>
      <point x="512.0" y="432.380952381"/>
      <point x="512" y="512" type="curve" smooth="yes"/>
      <point x="512" y="618"/>
      <point x="420" y="662"/>
      <point x="334" y="662" type="curve" smooth="yes"/>
      <point x="218" y="662"/>
      <point x="120" y="592"/>
      <point x="120" y="476" type="curve" smooth="yes"/>
      <point x="120.0" y="422.923076923"/>
      <point x="135.324099288" y="376.658381832"/>
      <point x="172" y="338" type="curve"/>
      <point x="172" y="334" type="line"/>
      <point x="96.5842390418" y="305.464306664"/>
      <point x="38.0" y="241.906976744"/>
      <point x="38" y="154" type="curve" smooth="yes"/>
      <point x="38" y="36"/>
      <point x="148" y="-12"/>
    </contour>
    <contour>
      <point x="330" y="380" type="curve"/>
      <point x="281.721150264" y="407.156852977"/>
      <point x="260.0" y="437.510638298"/>
      <point x="260" y="482" type="curve" smooth="yes"/>
      <point x="260" y="526"/>
      <point x="288" y="550"/>
      <point x="322" y="550" type="curve" smooth="yes"/>
      <point x="363" y="550"/>
      <point x="376" y="522"/>
      <point x="376" y="488" type="curve" smooth="yes"/>
      <point x="376.0" y="440.48"/>
      <point x="355.509127795" y="405.509127795"/>
    </contour>
    <contour>
      <point x="250" y="98" type="curve" smooth="yes"/>
      <point x="202" y="98"/>
      <point x="180" y="134"/>
      <point x="180" y="172" type="curve" smooth="yes"/>
      <point x="180.0" y="221.407407407"/>
      <point x="204.450628493" y="262.760502794"/>
      <point x="236" y="288" type="curve"/>
      <point x="295.265916176" y="253.84676017"/>
      <point x="328.0" y="223.294117647"/>
      <point x="328" y="178" type="curve" smooth="yes"/>
      <point x="328" y="124"/>
      <point x="291" y="98"/>
    </contour>
  </outline>
</glyph>
<glyph name="emdash.sups" format="1">
  <advance width="541"/>
  <outline>
    <contour>
      <point x="72" y="530" type="line"/>
      <point x="530" y="530" type="line"/>
      <point x="544" y="602" type="line"/>
      <point x="86" y="602" type="line"/>
    </contour>
  </outline>
</glyph>
<glyph name="endash.sups" format="1">
  <advance width="336"/>
  <outline>
    <contour>
      <point x="72" y="530" type="line"/>
      <point x="324" y="530" type="line"/>
      <point x="338" y="602" type="line"/>
      <point x="86" y="602" type="line"/>
    </contour>
  </outline>
</glyph>
<glyph name="eopenreversed" format="1">
  <advance width="465"/>
  <outline>
    <contour>
      <point x="207" y="-12" type="curve" smooth="yes"/>
      <point x="312" y="-12"/>
      <point x="430" y="40"/>
      <point x="451" y="144" type="curve"/>
      <point x="464" y="210"/>
      <point x="433" y="246"/>
      <point x="376" y="262" type="curve"/>
      <point x="377" y="266" type="line"/>
      <point x="435" y="282"/>
      <point x="467" y="328"/>
      <point x="474" y="366" type="curve" smooth="yes"/>
      <point x="495" y="469"/>
      <point x="412" y="512"/>
      <point x="310" y="512" type="curve" smooth="yes"/>
      <point x="250" y="512"/>
      <point x="193" y="498"/>
      <point x="134" y="468" type="curve"/>
      <point x="171" y="358" type="line"/>
      <point x="205" y="374"/>
      <point x="232" y="382"/>
      <point x="264" y="382" type="curve" smooth="yes"/>
      <point x="299" y="382"/>
      <point x="313" y="364"/>
      <point x="308" y="342" type="curve" smooth="yes"/>
      <point x="304" y="318"/>
      <point x="285" y="310"/>
      <point x="252" y="310" type="curve" smooth="yes"/>
      <point x="182" y="310" type="line"/>
      <point x="160" y="198" type="line"/>
      <point x="245" y="198" type="line" smooth="yes"/>
      <point x="284" y="198"/>
      <point x="299" y="190"/>
      <point x="293" y="162" type="curve" smooth="yes"/>
      <point x="288" y="134"/>
      <point x="252" y="118"/>
      <point x="207" y="118" type="curve" smooth="yes"/>
      <point x="184" y="118"/>
      <point x="152" y="126"/>
      <point x="123" y="144" type="curve"/>
      <point x="38" y="36" type="line"/>
      <point x="94" y="-2"/>
      <point x="145" y="-12"/>
    </contour>
    <contour>
      <point x="331" y="522" type="move" name="aboveLC"/>
    </contour>
    <contour>
      <point x="222" y="-22" type="move" name="belowLC"/>
    </contour>
  </outline>
</glyph>
<glyph name="es" format="1">
	<advance width="446"/>
	<outline>
		<component base="c"/>
		<contour>
			<point name="aboveLC" x="324" y="520" type="move"/>
		</contour>
	</outline>
</glyph>
<glyph name="esh" format="1">
  <advance width="278"/>
  <outline>
    <contour>
      <point x="-1" y="-188" type="curve" smooth="yes"/>
      <point x="143" y="-188"/>
      <point x="206" y="-86"/>
      <point x="228" y="26" type="curve" smooth="yes"/>
      <point x="323" y="500" type="line" smooth="yes"/>
      <point x="333" y="554"/>
      <point x="354" y="574"/>
      <point x="395" y="574" type="curve" smooth="yes"/>
      <point x="404" y="574"/>
      <point x="410" y="572"/>
      <point x="419" y="568" type="curve"/>
      <point x="473" y="694" type="line"/>
      <point x="455" y="702"/>
      <point x="434" y="708"/>
      <point x="395" y="708" type="curve" smooth="yes"/>
      <point x="243" y="708"/>
      <point x="179" y="606"/>
      <point x="156" y="494" type="curve" smooth="yes"/>
      <point x="62" y="20" type="line"/>
      <point x="51" y="-34"/>
      <point x="33" y="-54"/>
      <point x="-1" y="-54" type="curve" smooth="yes"/>
      <point x="-13" y="-54"/>
      <point x="-22" y="-52"/>
      <point x="-35" y="-48" type="curve"/>
      <point x="-89" y="-174" type="line"/>
      <point x="-69" y="-182"/>
      <point x="-45" y="-188"/>
    </contour>
  </outline>
</glyph>
<glyph name="etaiotasub" format="1">
	<advance width="548"/>
	<outline>
		<component base="eta"/>
		<component base="iotasubscriptcmb" xOffset="94"/>
		<contour>
			<point name="aboveLC" x="340" y="520" type="move"/>
		</contour>
	</outline>
</glyph>
<glyph name="eturned" format="1">
  <advance width="498"/>
  <outline>
    <component base="schwa"/>
    <contour>
      <point x="249" y="520" type="move" name="aboveLC"/>
    </contour>
    <contour>
      <point x="249" y="-20" type="move" name="belowLC"/>
    </contour>
  </outline>
</glyph>
<glyph name="ezh" format="1">
  <advance width="455"/>
  <outline>
    <contour>
      <point x="170" y="-188" type="curve" smooth="yes"/>
      <point x="294" y="-188"/>
      <point x="413" y="-104"/>
      <point x="443" y="44" type="curve" smooth="yes"/>
      <point x="462" y="143"/>
      <point x="424" y="218"/>
      <point x="329" y="235" type="curve"/>
      <point x="492" y="408" type="line"/>
      <point x="511" y="500" type="line"/>
      <point x="134" y="500" type="line"/>
      <point x="108" y="366" type="line"/>
      <point x="288" y="366" type="line"/>
      <point x="122" y="188" type="line"/>
      <point x="158" y="108" type="line"/>
      <point x="181" y="116"/>
      <point x="189" y="118"/>
      <point x="214" y="118" type="curve" smooth="yes"/>
      <point x="260" y="118"/>
      <point x="287" y="90"/>
      <point x="277" y="40" type="curve" smooth="yes"/>
      <point x="265" y="-18"/>
      <point x="226" y="-50"/>
      <point x="176" y="-50" type="curve" smooth="yes"/>
      <point x="136" y="-50"/>
      <point x="104" y="-28"/>
      <point x="79" y="0" type="curve"/>
      <point x="-15" y="-106" type="line"/>
      <point x="21" y="-152"/>
      <point x="79" y="-188"/>
    </contour>
    <contour>
      <point x="307" y="527" type="move" name="aboveLC"/>
    </contour>
  </outline>
</glyph>
<glyph name="g.a" format="1">
	<advance width="552"/>
	<outline>
		<component base="gscript"/>
		<contour>
			<point name="aboveLC" x="324" y="520" type="move"/>
		</contour>
		<contour>
			<point name="belowLC" x="170" y="-228" type="move"/>
		</contour>
	</outline>
</glyph>
<glyph name="gammalatinsupmod" format="1">
	<advance width="352"/>
	<outline>
		<contour>
			<point x="195" y="415" type="line"/>
			<point x="327" y="415" type="line"/>
			<point x="485" y="699" type="line"/>
			<point x="376" y="699" type="line"/>
			<point x="319" y="578" type="line"/>
			<point x="306" y="550"/>
			<point x="294" y="531"/>
			<point x="281" y="501" type="curve"/>
			<point x="278" y="501" type="line"/>
			<point x="276" y="531"/>
			<point x="272" y="550"/>
			<point x="271" y="578" type="curve"/>
			<point x="262" y="699" type="line"/>
			<point x="147" y="699" type="line"/>
		</contour>
		<contour>
			<point x="226" y="233" type="curve" smooth="yes"/>
			<point x="292" y="233"/>
			<point x="346" y="274"/>
			<point x="358" y="338" type="curve" smooth="yes"/>
			<point x="367" y="380"/>
			<point x="351" y="408"/>
			<point x="328" y="472" type="curve"/>
			<point x="219" y="472" type="line"/>
			<point x="170" y="408"/>
			<point x="143" y="380"/>
			<point x="135" y="338" type="curve" smooth="yes"/>
			<point x="122" y="274"/>
			<point x="159" y="233"/>
		</contour>
		<contour>
			<point x="240" y="305" type="curve" smooth="yes"/>
			<point x="229" y="305"/>
			<point x="221" y="314"/>
			<point x="224" y="329" type="curve" smooth="yes"/>
			<point x="227" y="345"/>
			<point x="236" y="361"/>
			<point x="254" y="389" type="curve"/>
			<point x="257" y="389" type="line"/>
			<point x="267" y="361"/>
			<point x="269" y="345"/>
			<point x="265" y="329" type="curve" smooth="yes"/>
			<point x="262" y="314"/>
			<point x="251" y="305"/>
		</contour>
	</outline>
</glyph>
<glyph name="glottalstop" format="1">
	<advance width="442"/>
	<outline>
		<contour>
			<point x="117" y="0" type="line"/>
			<point x="282" y="0" type="line"/>
			<point x="333" y="252" type="line"/>
			<point x="432" y="325"/>
			<point x="504" y="390"/>
			<point x="526" y="498" type="curve" smooth="yes"/>
			<point x="554" y="639"/>
			<point x="464" y="708"/>
			<point x="345" y="708" type="curve" smooth="yes"/>
			<point x="250" y="708"/>
			<point x="174" y="670"/>
			<point x="116" y="618" type="curve"/>
			<point x="175" y="510" type="line"/>
			<point x="212" y="544"/>
			<point x="256" y="570"/>
			<point x="298" y="570" type="curve" smooth="yes"/>
			<point x="344" y="570"/>
			<point x="370" y="543"/>
			<point x="359" y="490" type="curve" smooth="yes"/>
			<point x="347" y="432"/>
			<point x="304" y="390"/>
			<point x="180" y="314" type="curve"/>
		</contour>
		<contour>
			<point name="aboveUC" x="221" y="730" type="move"/>
		</contour>
		<contour>
			<point name="belowLC" x="221" y="-20" type="move"/>
		</contour>
	</outline>
</glyph>
<glyph name="glottalstopreversed" format="1">
	<advance width="509"/>
	<outline>
		<contour>
			<point x="188" y="0" type="line"/>
			<point x="353" y="0" type="line"/>
			<point x="416" y="314" type="line"/>
			<point x="323" y="390"/>
			<point x="296" y="432"/>
			<point x="307" y="490" type="curve" smooth="yes"/>
			<point x="318" y="543"/>
			<point x="358" y="570"/>
			<point x="410" y="570" type="curve" smooth="yes"/>
			<point x="448" y="570"/>
			<point x="478" y="544"/>
			<point x="499" y="510" type="curve"/>
			<point x="602" y="618" type="line"/>
			<point x="566" y="670"/>
			<point x="508" y="708"/>
			<point x="418" y="708" type="curve" smooth="yes"/>
			<point x="294" y="708"/>
			<point x="172" y="639"/>
			<point x="144" y="498" type="curve" smooth="yes"/>
			<point x="122" y="390"/>
			<point x="169" y="325"/>
			<point x="239" y="252" type="curve"/>
		</contour>
	</outline>
</glyph>
<glyph name="glottalstopreversedmod" format="1">
	<advance width="344"/>
	<outline>
		<contour>
			<point x="199" y="368" type="line"/>
			<point x="314" y="368" type="line"/>
			<point x="355" y="575" type="line"/>
			<point x="292" y="625"/>
			<point x="274" y="653"/>
			<point x="282" y="690" type="curve" smooth="yes"/>
			<point x="289" y="724"/>
			<point x="315" y="740"/>
			<point x="348" y="740" type="curve" smooth="yes"/>
			<point x="373" y="740"/>
			<point x="393" y="724"/>
			<point x="407" y="701" type="curve"/>
			<point x="477" y="775" type="line"/>
			<point x="454" y="810"/>
			<point x="415" y="835"/>
			<point x="353" y="835" type="curve" smooth="yes"/>
			<point x="270" y="835"/>
			<point x="187" y="789"/>
			<point x="169" y="695" type="curve" smooth="yes"/>
			<point x="154" y="624"/>
			<point x="185" y="581"/>
			<point x="232" y="533" type="curve"/>
		</contour>
	</outline>
</glyph>
<glyph name="glottalstopstrokereversed" format="1">
  <advance width="470"/>
  <outline>
    <contour>
      <point x="173" y="0" type="line"/>
      <point x="338" y="0" type="line"/>
      <point x="374" y="180" type="line"/>
      <point x="495" y="180" type="line"/>
      <point x="520" y="308" type="line"/>
      <point x="449" y="314" type="line"/>
      <point x="381" y="314" type="line"/>
      <point x="302" y="390"/>
      <point x="282" y="442"/>
      <point x="292" y="490" type="curve" smooth="yes"/>
      <point x="302" y="543"/>
      <point x="342" y="570"/>
      <point x="394" y="570" type="curve" smooth="yes"/>
      <point x="433" y="570"/>
      <point x="463" y="544"/>
      <point x="484" y="510" type="curve"/>
      <point x="586" y="618" type="line"/>
      <point x="551" y="670"/>
      <point x="493" y="708"/>
      <point x="403" y="708" type="curve" smooth="yes"/>
      <point x="279" y="708"/>
      <point x="156" y="639"/>
      <point x="128" y="498" type="curve" smooth="yes"/>
      <point x="115" y="429"/>
      <point x="151" y="372"/>
      <point x="197" y="314" type="curve"/>
      <point x="78" y="314" type="line"/>
      <point x="51" y="180" type="line"/>
      <point x="209" y="180" type="line"/>
    </contour>
  </outline>
</glyph>
<glyph name="guarani" format="1">
  <advance width="520"/>
  <outline>
    <contour>
      <point x="256" y="-12" type="curve" smooth="yes"/>
      <point x="334" y="-12"/>
      <point x="400" y="26"/>
      <point x="448" y="66" type="curve"/>
      <point x="508" y="368" type="line"/>
      <point x="310" y="368" type="line"/>
      <point x="284" y="238" type="line"/>
      <point x="342" y="238" type="line"/>
      <point x="318" y="126" type="line"/>
      <point x="308" y="118"/>
      <point x="294" y="116"/>
      <point x="284" y="116" type="curve" smooth="yes"/>
      <point x="228" y="116"/>
      <point x="198" y="166"/>
      <point x="198" y="252" type="curve" smooth="yes"/>
      <point x="198" y="392"/>
      <point x="260.0" y="518.0"/>
      <point x="372" y="518" type="curve" smooth="yes"/>
      <point x="398" y="518"/>
      <point x="414" y="502"/>
      <point x="428" y="472" type="curve"/>
      <point x="542" y="548" type="line"/>
      <point x="508" y="606"/>
      <point x="462" y="646"/>
      <point x="388" y="646" type="curve" smooth="yes"/>
      <point x="198.0" y="646.0"/>
      <point x="38" y="484"/>
      <point x="38" y="242" type="curve" smooth="yes"/>
      <point x="38" y="78"/>
      <point x="120" y="-12"/>
    </contour>
    <contour>
      <point x="176" y="-110" type="line"/>
      <point x="280" y="-110" type="line"/>
      <point x="314" y="54" type="line"/>
      <point x="208" y="54" type="line"/>
    </contour>
    <contour>
      <point x="320" y="596" type="line"/>
      <point x="424" y="596" type="line"/>
      <point x="452" y="744" type="line"/>
      <point x="348" y="744" type="line"/>
    </contour>
  </outline>
</glyph>
<glyph name="hhook" format="1">
  <advance width="559"/>
  <outline>
    <contour>
      <point x="56" y="0" type="line"/>
      <point x="221" y="0" type="line"/>
      <point x="282" y="308" type="line"/>
      <point x="312" y="332"/>
      <point x="332" y="346"/>
      <point x="363" y="346" type="curve" smooth="yes"/>
      <point x="396" y="346"/>
      <point x="408" y="330"/>
      <point x="395" y="266" type="curve" smooth="yes"/>
      <point x="342" y="0" type="line"/>
      <point x="507" y="0" type="line"/>
      <point x="564" y="288" type="line" smooth="yes"/>
      <point x="589" y="412"/>
      <point x="561" y="492"/>
      <point x="455" y="492" type="curve" smooth="yes"/>
      <point x="390" y="492"/>
      <point x="337" y="458"/>
      <point x="299" y="428" type="curve"/>
      <point x="317" y="492" type="line"/>
      <point x="335" y="554"/>
      <point x="362" y="574"/>
      <point x="405" y="574" type="curve" smooth="yes"/>
      <point x="420" y="574"/>
      <point x="436" y="570"/>
      <point x="451" y="564" type="curve"/>
      <point x="505" y="690" type="line"/>
      <point x="485" y="698"/>
      <point x="451" y="708"/>
      <point x="406" y="708" type="curve" smooth="yes"/>
      <point x="251" y="708"/>
      <point x="176" y="603"/>
      <point x="153" y="486" type="curve" smooth="yes"/>
    </contour>
    <contour>
      <point x="280" y="-22" type="move" name="belowLC"/>
    </contour>
  </outline>
</glyph>
<glyph name="hookrhoticmod" format="1">
  <advance width="196"/>
  <outline>
    <contour>
      <point x="178" y="225" type="curve" smooth="yes"/>
      <point x="213" y="225"/>
      <point x="241" y="236"/>
      <point x="265" y="250" type="curve"/>
      <point x="249" y="329" type="line"/>
      <point x="238" y="324"/>
      <point x="224" y="319"/>
      <point x="208" y="319" type="curve" smooth="yes"/>
      <point x="184" y="319"/>
      <point x="168" y="352"/>
      <point x="173" y="472" type="curve"/>
      <point x="-40" y="384" type="line"/>
      <point x="-65" y="262" type="line"/>
      <point x="78" y="322" type="line"/>
      <point x="89" y="246"/>
      <point x="131" y="225"/>
    </contour>
  </outline>
</glyph>
<glyph name="hsmall" format="1">
  <advance width="590"/>
  <outline>
    <component base="en" xOffset="2"/>
    <contour>
      <point x="295" y="520" type="move" name="aboveLC"/>
    </contour>
    <contour>
      <point x="295" y="-20" type="move" name="belowLC"/>
    </contour>
  </outline>
</glyph>
<glyph name="hyphen.sups" format="1">
  <advance width="247"/>
  <outline>
    <contour>
      <point x="70" y="526" type="line"/>
      <point x="234" y="526" type="line"/>
      <point x="250" y="608" type="line"/>
      <point x="86" y="608" type="line"/>
    </contour>
  </outline>
</glyph>
<glyph name="i" format="1">
  <advance width="276"/>
  <outline>
    <component base="dotlessi"/>
    <component base="dotaccentcmb" xOffset="94"/>
    <contour>
      <point x="94" y="-20" type="move" name="belowLC"/>
    </contour>
    <contour>
      <point x="88" y="0" type="move" name="ogonekLC"/>
    </contour>
    <contour>
      <point x="88" y="0" type="move" name="baseLC"/>
    </contour>
    <contour>
      <point x="138" y="520" type="move" name="aboveUC"/>
    </contour>
  </outline>
</glyph>
<glyph name="iotasubscript" format="1">
	<advance width="560"/>
	<outline>
		<component base="iotasubscriptcmb" xOffset="280"/>
		<contour>
			<point name="_belowLC" x="-4" y="-20" type="move"/>
		</contour>
	</outline>
</glyph>
<glyph name="iotasubscriptcmb" format="1">
	<outline>
		<contour>
			<point x="11" y="-222" type="curve" smooth="yes"/>
			<point x="40" y="-222"/>
			<point x="62" y="-217"/>
			<point x="78" y="-210" type="curve"/>
			<point x="81" y="-120" type="line"/>
			<point x="74" y="-121"/>
			<point x="71" y="-121"/>
			<point x="66" y="-121" type="curve" smooth="yes"/>
			<point x="44" y="-121"/>
			<point x="29" y="-115"/>
			<point x="34" y="-88" type="curve" smooth="yes"/>
			<point x="36" y="-80"/>
			<point x="39" y="-66"/>
			<point x="43" y="-52" type="curve"/>
			<point x="-74" y="-52" type="line"/>
			<point x="-80" y="-81" type="line" smooth="yes"/>
			<point x="-96" y="-165"/>
			<point x="-78" y="-222"/>
		</contour>
		<contour>
			<point name="_belowLC" x="-4" y="-20" type="move"/>
		</contour>
	</outline>
</glyph>
<glyph name="istroke" format="1">
	<outline>
		<component base="istroke.d"/>
		<component base="dotaccentcmb"/>
		<contour>
			<point name="belowLC" x="0" y="-20" type="move"/>
		</contour>
		<contour>
			<point name="baseLC" x="0" y="0" type="move"/>
		</contour>
		<contour>
			<point name="aboveUC" x="0" y="520" type="move"/>
		</contour>
	</outline>
</glyph>
<glyph name="j" format="1">
  <advance width="278"/>
  <outline>
    <component base="dotlessj"/>
    <component base="dotaccentcmb" xOffset="94"/>
    <contour>
      <point x="-8" y="-238" type="move" name="belowLC"/>
    </contour>
    <contour>
      <point x="139" y="520" type="move" name="aboveUC"/>
    </contour>
  </outline>
</glyph>
<glyph name="jcrossedtail.d" format="1">
	<outline>
		<contour>
			<point name="aboveLC" x="0" y="520" type="move"/>
		</contour>
		<contour>
			<point name="belowLC" x="0" y="-20" type="move"/>
		</contour>
	</outline>
</glyph>
<glyph name="jcrossedtail" format="1">
  <advance width="374"/>
  <outline>
    <contour>
      <point x="265" y="-250" type="curve"/>
      <point x="403" y="-192" type="line"/>
      <point x="362" y="17"/>
      <point x="232" y="120"/>
      <point x="143" y="120" type="curve" smooth="yes"/>
      <point x="46" y="120"/>
      <point x="-24" y="62"/>
      <point x="-42" y="-26" type="curve" smooth="yes"/>
      <point x="-60" y="-118"/>
      <point x="-15" y="-188"/>
      <point x="85" y="-188" type="curve" smooth="yes"/>
      <point x="216" y="-188"/>
      <point x="304" y="-82"/>
      <point x="326" y="30" type="curve" smooth="yes"/>
      <point x="419" y="500" type="line"/>
      <point x="260" y="500" type="line"/>
      <point x="160" y="0" type="line" smooth="yes"/>
      <point x="150" y="-48"/>
      <point x="129" y="-62"/>
      <point x="106" y="-62" type="curve" smooth="yes"/>
      <point x="82" y="-62"/>
      <point x="76" y="-40"/>
      <point x="80" y="-22" type="curve" smooth="yes"/>
      <point x="84" y="-4"/>
      <point x="100" y="8"/>
      <point x="119" y="8" type="curve" smooth="yes"/>
      <point x="165" y="8"/>
      <point x="239" y="-92"/>
    </contour>
    <contour>
      <point x="348" y="562" type="curve" smooth="yes"/>
      <point x="402" y="562"/>
      <point x="448" y="598"/>
      <point x="458" y="648" type="curve" smooth="yes"/>
      <point x="468" y="698"/>
      <point x="437" y="734"/>
      <point x="383" y="734" type="curve" smooth="yes"/>
      <point x="329" y="734"/>
      <point x="283" y="698"/>
      <point x="273" y="648" type="curve" smooth="yes"/>
      <point x="263" y="598"/>
      <point x="295" y="562"/>
    </contour>
  </outline>
</glyph>
<glyph name="ka" format="1">
  <advance width="536"/>
  <outline>
    <contour>
      <point x="8" y="0" type="line"/>
      <point x="168" y="0" type="line"/>
      <point x="206" y="188" type="line"/>
      <point x="244" y="188" type="line"/>
      <point x="317" y="0" type="line"/>
      <point x="482" y="0" type="line"/>
      <point x="370" y="260" type="line"/>
      <point x="572" y="500" type="line"/>
      <point x="396" y="500" type="line"/>
      <point x="258" y="322" type="line"/>
      <point x="232" y="322" type="line"/>
      <point x="268" y="500" type="line"/>
      <point x="108" y="500" type="line"/>
    </contour>
  </outline>
</glyph>
<glyph name="kgreenlandic" format="1">
  <advance width="544"/>
  <outline>
    <contour>
      <point x="8" y="0" type="line"/>
      <point x="168" y="0" type="line"/>
      <point x="192" y="118" type="line"/>
      <point x="260" y="186" type="line"/>
      <point x="328" y="0" type="line"/>
      <point x="488" y="0" type="line"/>
      <point x="370" y="278" type="line"/>
      <point x="576" y="500" type="line"/>
      <point x="400" y="500" type="line"/>
      <point x="236" y="320" type="line"/>
      <point x="232" y="320" type="line"/>
      <point x="266" y="500" type="line"/>
      <point x="106" y="500" type="line"/>
    </contour>
  </outline>
</glyph>
<glyph name="l.a" format="1">
  <advance width="276"/>
  <outline>
    <contour>
      <point x="8" y="0" type="line"/>
      <point x="168" y="0" type="line"/>
      <point x="308" y="696" type="line"/>
      <point x="148" y="696" type="line"/>
    </contour>
    <contour>
      <point x="240" y="730" type="move" name="aboveLC"/>
    </contour>
    <contour>
      <point x="90" y="-20" type="move" name="belowLC"/>
    </contour>
  </outline>
</glyph>
<glyph name="l.supa" format="1">
  <advance width="186"/>
  <outline>
    <contour>
      <point x="58" y="368" type="line"/>
      <point x="170" y="368" type="line"/>
      <point x="262" y="828" type="line"/>
      <point x="150" y="828" type="line"/>
    </contour>
  </outline>
</glyph>
<glyph name="lbelt" format="1">
  <advance width="406"/>
  <outline>
    <contour>
      <point x="137" y="282" type="curve" smooth="yes"/>
      <point x="372" y="282" type="line"/>
      <point x="388" y="362" type="line"/>
      <point x="137" y="362" type="line" smooth="yes"/>
      <point x="104" y="362"/>
      <point x="91" y="376"/>
      <point x="94" y="393" type="curve" smooth="yes"/>
      <point x="97" y="409"/>
      <point x="109" y="420"/>
      <point x="127" y="420" type="curve" smooth="yes"/>
      <point x="163" y="420"/>
      <point x="164" y="380"/>
      <point x="160" y="362" type="curve"/>
      <point x="212" y="342" type="line"/>
      <point x="220" y="381"/>
      <point x="232" y="498"/>
      <point x="137" y="498" type="curve" smooth="yes"/>
      <point x="75" y="498"/>
      <point x="22" y="453"/>
      <point x="10" y="392" type="curve" smooth="yes"/>
      <point x="-2" y="331"/>
      <point x="32" y="282"/>
    </contour>
    <component base="l" xOffset="78"/>
    <contour>
      <point x="203" y="730" type="move" name="aboveUC"/>
    </contour>
    <contour>
      <point x="203" y="-20" type="move" name="belowLC"/>
    </contour>
  </outline>
</glyph>
<glyph name="lefttackbelowcmb" format="1">
  <advance width="0"/>
  <outline>
    <contour>
      <point x="48" y="-260" type="line"/>
      <point x="89" y="-52" type="line"/>
      <point x="5" y="-52" type="line"/>
      <point x="-8" y="-116" type="line"/>
      <point x="-111" y="-116" type="line"/>
      <point x="-127" y="-196" type="line"/>
      <point x="-24" y="-196" type="line"/>
      <point x="-37" y="-260" type="line"/>
    </contour>
    <contour>
      <point x="-4" y="-22" type="move" name="_belowLC"/>
    </contour>
  </outline>
</glyph>
<glyph name="lenis.cap" format="1">
  <advance width="175"/>
  <outline>
    <contour>
      <point x="124" y="418" type="line"/>
      <point x="204" y="424"/>
      <point x="276" y="460"/>
      <point x="293" y="546" type="curve" smooth="yes"/>
      <point x="305" y="606"/>
      <point x="274" y="650"/>
      <point x="142" y="654" type="curve"/>
      <point x="106" y="570" type="line"/>
      <point x="161" y="565"/>
      <point x="177" y="549"/>
      <point x="173" y="528" type="curve" smooth="yes"/>
      <point x="167" y="500"/>
      <point x="146" y="490"/>
      <point x="126" y="484" type="curve"/>
    </contour>
  </outline>
</glyph>
<glyph name="lenisacutecmb" format="1">
	<outline>
		<contour>
			<point x="-37" y="574" type="line"/>
			<point x="23" y="582"/>
			<point x="95" y="611"/>
			<point x="110" y="686" type="curve" smooth="yes"/>
			<point x="122" y="747"/>
			<point x="81" y="790"/>
			<point x="-33" y="794" type="curve"/>
			<point x="-60" y="700" type="line"/>
			<point x="-13" y="696"/>
			<point x="2" y="685"/>
			<point x="-1" y="668" type="curve" smooth="yes"/>
			<point x="-5" y="649"/>
			<point x="-19" y="643"/>
			<point x="-35" y="640" type="curve"/>
		</contour>
		<contour>
			<point x="122" y="574" type="line"/>
			<point x="209" y="556" type="line"/>
			<point x="322" y="776" type="line"/>
			<point x="197" y="802" type="line"/>
		</contour>
		<contour>
			<point name="_aboveLC" x="104" y="520" type="move"/>
		</contour>
	</outline>
</glyph>
<glyph name="lenisgrave.cap" format="1">
  <advance width="346"/>
  <outline>
    <contour>
      <point x="337" y="430" type="line"/>
      <point x="445" y="450" type="line"/>
      <point x="462" y="670" type="line"/>
      <point x="320" y="650" type="line"/>
    </contour>
    <contour>
      <point x="125" y="426" type="line"/>
      <point x="187" y="436"/>
      <point x="260" y="474"/>
      <point x="275" y="550" type="curve" smooth="yes"/>
      <point x="288" y="614"/>
      <point x="251" y="658"/>
      <point x="144" y="662" type="curve"/>
      <point x="108" y="578" type="line"/>
      <point x="155" y="573"/>
      <point x="168" y="553"/>
      <point x="164" y="532" type="curve" smooth="yes"/>
      <point x="159" y="509"/>
      <point x="144" y="500"/>
      <point x="127" y="492" type="curve"/>
    </contour>
  </outline>
</glyph>
<glyph name="lenistilde.cap" format="1">
  <advance width="227"/>
  <outline>
    <contour>
      <point x="92" y="574" type="curve"/>
      <point x="159" y="564" type="line"/>
      <point x="167" y="584"/>
      <point x="174" y="590"/>
      <point x="187" y="590" type="curve" smooth="yes"/>
      <point x="212" y="590"/>
      <point x="231" y="558"/>
      <point x="275" y="558" type="curve" smooth="yes"/>
      <point x="323" y="558"/>
      <point x="355" y="575"/>
      <point x="380" y="652" type="curve"/>
      <point x="313" y="662" type="line"/>
      <point x="305" y="642"/>
      <point x="298" y="636"/>
      <point x="285" y="636" type="curve" smooth="yes"/>
      <point x="260" y="636"/>
      <point x="241" y="668"/>
      <point x="197" y="668" type="curve" smooth="yes"/>
      <point x="149" y="668"/>
      <point x="117" y="651"/>
    </contour>
    <contour>
      <point x="155" y="389" type="line"/>
      <point x="223" y="396"/>
      <point x="282" y="420"/>
      <point x="292" y="473" type="curve" smooth="yes"/>
      <point x="300" y="513"/>
      <point x="271" y="537"/>
      <point x="154" y="541" type="curve"/>
      <point x="126" y="475" type="line"/>
      <point x="174" y="471"/>
      <point x="185" y="465"/>
      <point x="183" y="455" type="curve" smooth="yes"/>
      <point x="181" y="446"/>
      <point x="171" y="443"/>
      <point x="155" y="441" type="curve"/>
    </contour>
  </outline>
</glyph>
<glyph name="lenistilde" format="1">
	<advance width="560"/>
	<outline>
		<component base="lenistildecmb" xOffset="280"/>
		<contour>
			<point name="_aboveLC" x="280" y="520" type="move"/>
		</contour>
	</outline>
</glyph>
<glyph name="lezh" format="1">
  <advance width="664"/>
  <outline>
    <contour>
      <point x="119" y="366" type="line"/>
      <point x="345" y="366" type="line"/>
      <point x="372" y="500" type="line"/>
      <point x="146" y="500" type="line"/>
    </contour>
    <component base="l.alt"/>
    <component base="ezh" xOffset="190"/>
  </outline>
</glyph>
<glyph name="liraturkish" format="1">
  <advance width="520"/>
  <outline>
    <contour>
      <point x="270" y="135" type="curve"/>
      <point x="370" y="635" type="line"/>
      <point x="210" y="635" type="line"/>
      <point x="80" y="-12" type="line"/>
      <point x="320" y="-18"/>
      <point x="548" y="60"/>
      <point x="548" y="316" type="curve"/>
      <point x="412" y="286" type="line"/>
      <point x="406" y="202"/>
      <point x="350" y="146"/>
    </contour>
    <contour>
      <point x="322" y="426" type="line"/>
      <point x="496" y="506" type="line"/>
      <point x="470" y="568" type="line"/>
      <point x="336" y="508" type="line"/>
      <point x="178" y="464" type="line"/>
      <point x="78" y="420" type="line"/>
      <point x="104" y="358" type="line"/>
      <point x="164" y="382" type="line"/>
    </contour>
    <contour>
      <point x="298" y="288" type="line"/>
      <point x="472" y="368" type="line"/>
      <point x="446" y="430" type="line"/>
      <point x="312" y="370" type="line"/>
      <point x="154" y="326" type="line"/>
      <point x="54" y="282" type="line"/>
      <point x="80" y="220" type="line"/>
      <point x="140" y="244" type="line"/>
    </contour>
  </outline>
</glyph>
<glyph name="lmiddletilde" format="1">
	<advance width="286"/>
	<outline>
		<component base="l"/>
		<component base="tildeoverlaycmb" xOffset="154" yOffset="360"/>
		<contour>
			<point name="belowLC" x="90" y="-20" type="move"/>
		</contour>
		<contour>
			<point name="aboveUC" x="240" y="730" type="move"/>
		</contour>
	</outline>
</glyph>
<glyph name="lretroflex" format="1">
  <advance width="286"/>
  <outline>
    <contour>
      <point x="195" y="-188" type="curve" smooth="yes"/>
      <point x="234" y="-188"/>
      <point x="257" y="-182"/>
      <point x="278" y="-174" type="curve"/>
      <point x="275" y="-48" type="line"/>
      <point x="264" y="-52"/>
      <point x="257" y="-54"/>
      <point x="248" y="-54" type="curve" smooth="yes"/>
      <point x="221" y="-54"/>
      <point x="213" y="-37"/>
      <point x="223" y="10" type="curve"/>
      <point x="360" y="696" type="line"/>
      <point x="195" y="696" type="line"/>
      <point x="59" y="16" type="line" smooth="yes"/>
      <point x="37" y="-91"/>
      <point x="58" y="-188"/>
    </contour>
  </outline>
</glyph>
<glyph name="lsmall" format="1">
  <advance width="422"/>
  <outline>
    <contour>
      <point x="56" y="0" type="line"/>
      <point x="397" y="0" type="line"/>
      <point x="424" y="134" type="line"/>
      <point x="248" y="134" type="line"/>
      <point x="321" y="500" type="line"/>
      <point x="156" y="500" type="line"/>
    </contour>
    <contour>
      <point x="238" y="-20" type="move" name="belowLC"/>
    </contour>
    <contour>
      <point x="255" y="564" type="move" name="aboveLC"/>
    </contour>
  </outline>
</glyph>
<glyph name="macroncmb.cap" format="1">
  <advance width="0"/>
  <outline>
    <contour>
      <point x="-6" y="716" type="line"/>
      <point x="294" y="716" type="line"/>
      <point x="314" y="818" type="line"/>
      <point x="14" y="818" type="line"/>
    </contour>
    <contour>
      <point x="134" y="670" type="move" name="_aboveUC"/>
    </contour>
  </outline>
</glyph>
<glyph name="minusbelowcmb" format="1">
	<outline>
		<contour>
			<point x="-147" y="-196" type="line"/>
			<point x="68" y="-196" type="line"/>
			<point x="84" y="-116" type="line"/>
			<point x="-131" y="-116" type="line"/>
		</contour>
		<contour>
			<point name="_belowLC" x="-4" y="-20" type="move"/>
		</contour>
	</outline>
</glyph>
<glyph name="mlonglegturned" format="1">
	<advance width="834"/>
	<outline>
		<component base="mturned"/>
		<contour>
			<point name="aboveLC" x="417" y="520" type="move"/>
		</contour>
		<contour>
			<point name="belowLC" x="417" y="-20" type="move"/>
		</contour>
	</outline>
</glyph>
<glyph name="naira" format="1">
	<advance width="520"/>
	<outline>
		<contour>
			<point x="16" y="0" type="line"/>
			<point x="134" y="0" type="line"/>
			<point x="178" y="228" type="line"/>
			<point x="204" y="516" type="line"/>
			<point x="208" y="516" type="line"/>
			<point x="228" y="234" type="line"/>
			<point x="252" y="0" type="line"/>
			<point x="398" y="0" type="line"/>
			<point x="526" y="634" type="line"/>
			<point x="408" y="634" type="line"/>
			<point x="364" y="404" type="line"/>
			<point x="338" y="118" type="line"/>
			<point x="334" y="118" type="line"/>
			<point x="314" y="400" type="line"/>
			<point x="292" y="634" type="line"/>
			<point x="144" y="634" type="line"/>
		</contour>
		<contour>
			<point x="20" y="344" type="line"/>
			<point x="532" y="344" type="line"/>
			<point x="546" y="406" type="line"/>
			<point x="100" y="406" type="line"/>
			<point x="30" y="400" type="line"/>
		</contour>
		<contour>
			<point x="-2" y="238" type="line"/>
			<point x="512" y="238" type="line"/>
			<point x="524" y="300" type="line"/>
			<point x="78" y="300" type="line"/>
			<point x="10" y="294" type="line"/>
		</contour>
	</outline>
</glyph>
<glyph name="ocyr" format="1">
	<advance width="540"/>
	<outline>
		<component base="o"/>
		<contour>
			<point name="aboveLC" x="334" y="520" type="move"/>
		</contour>
	</outline>
</glyph>
<glyph name="omicron" format="1">
  <advance width="540"/>
  <outline>
    <component base="o"/>
    <contour>
      <point x="334" y="520" type="move" name="aboveLC"/>
    </contour>
  </outline>
</glyph>
<glyph name="overline" format="1">
  <advance width="479"/>
  <outline>
    <contour>
      <point x="97" y="652" type="line"/>
      <point x="79" y="565" type="line"/>
      <point x="536" y="565" type="line"/>
      <point x="554" y="652" type="line"/>
    </contour>
  </outline>
</glyph>
<glyph name="pe" format="1">
  <advance width="562"/>
  <outline>
    <component base="n"/>
    <contour>
      <point x="281" y="520" type="move" name="aboveLC"/>
    </contour>
  </outline>
</glyph>
<glyph name="perispomenicmb.cap" format="1">
	<outline>
		<component base="tildecmb.cap"/>
		<contour>
			<point name="_aboveUC" x="134" y="670" type="move"/>
		</contour>
	</outline>
</glyph>
<glyph name="plusbelowcmb" format="1">
  <advance width="0"/>
  <outline>
    <contour>
      <point x="68" y="-196" type="line"/>
      <point x="84" y="-116" type="line"/>
      <point x="19" y="-116" type="line"/>
      <point x="32" y="-52" type="line"/>
      <point x="-53" y="-52" type="line"/>
      <point x="-65" y="-116" type="line"/>
      <point x="-131" y="-116" type="line"/>
      <point x="-147" y="-196" type="line"/>
      <point x="-81" y="-196" type="line"/>
      <point x="-94" y="-260" type="line"/>
      <point x="-10" y="-260" type="line"/>
      <point x="3" y="-196" type="line"/>
    </contour>
    <contour>
      <point x="-4" y="-22" type="move" name="_belowLC"/>
    </contour>
  </outline>
</glyph>
<glyph name="primereversed" format="1">
  <advance width="307"/>
  <outline>
    <contour>
      <point x="194" y="364" type="line"/>
      <point x="180" y="544" type="line"/>
      <point x="183" y="684" type="line"/>
      <point x="348" y="684" type="line"/>
      <point x="301" y="364" type="line"/>
    </contour>
  </outline>
</glyph>
<glyph name="rfishhook" format="1">
  <advance width="382"/>
  <outline>
    <contour>
      <point x="56" y="0" type="line"/>
      <point x="221" y="0" type="line"/>
      <point x="273" y="262" type="line" smooth="yes"/>
      <point x="289" y="341"/>
      <point x="336" y="364"/>
      <point x="363" y="364" type="curve" smooth="yes"/>
      <point x="391" y="364"/>
      <point x="401" y="362"/>
      <point x="428" y="354" type="curve"/>
      <point x="482" y="498" type="line"/>
      <point x="458" y="506"/>
      <point x="419" y="512"/>
      <point x="367" y="512" type="curve" smooth="yes"/>
      <point x="215" y="512"/>
      <point x="138" y="412"/>
      <point x="116" y="300" type="curve" smooth="yes"/>
    </contour>
  </outline>
</glyph>
<glyph name="righttackbelowcmb" format="1">
  <advance width="0"/>
  <outline>
    <contour>
      <point x="49" y="-196" type="line"/>
      <point x="65" y="-116" type="line"/>
      <point x="-39" y="-116" type="line"/>
      <point x="-26" y="-52" type="line"/>
      <point x="-110" y="-52" type="line"/>
      <point x="-152" y="-260" type="line"/>
      <point x="-67" y="-260" type="line"/>
      <point x="-55" y="-196" type="line"/>
    </contour>
    <contour>
      <point x="-4" y="-22" type="move" name="_belowLC"/>
    </contour>
  </outline>
</glyph>
<glyph name="ringhalfleftbelowcmb" format="1">
	<outline>
		<contour>
			<point x="-20" y="-258" type="curve"/>
			<point x="-8" y="-200" type="line"/>
			<point x="-40" y="-200"/>
			<point x="-54" y="-184"/>
			<point x="-54" y="-162" type="curve" smooth="yes"/>
			<point x="-54" y="-136"/>
			<point x="-34" y="-112"/>
			<point x="10" y="-110" type="curve"/>
			<point x="22" y="-50" type="line"/>
			<point x="-78" y="-50"/>
			<point x="-130" y="-102"/>
			<point x="-130" y="-170" type="curve" smooth="yes"/>
			<point x="-130" y="-224"/>
			<point x="-98" y="-262"/>
		</contour>
		<contour>
			<point name="_belowLC" x="-4" y="-20" type="move"/>
		</contour>
	</outline>
</glyph>
<glyph name="ringhalfrightbelowcmb" format="1">
  <advance width="0"/>
  <outline>
    <contour>
      <point x="-108" y="-262" type="line"/>
      <point x="-8" y="-262"/>
      <point x="44" y="-210"/>
      <point x="44" y="-142" type="curve" smooth="yes"/>
      <point x="44" y="-88"/>
      <point x="12" y="-50"/>
      <point x="-66" y="-54" type="curve"/>
      <point x="-78" y="-112" type="line"/>
      <point x="-46" y="-112"/>
      <point x="-32" y="-128"/>
      <point x="-32" y="-150" type="curve" smooth="yes"/>
      <point x="-32" y="-176"/>
      <point x="-52" y="-200"/>
      <point x="-96" y="-202" type="curve"/>
    </contour>
    <contour>
      <point x="-4" y="-20" type="move" name="_belowLC"/>
    </contour>
  </outline>
</glyph>
<glyph name="ruble" format="1">
  <advance width="518"/>
  <outline>
    <contour>
      <point x="56" y="0" type="line"/>
      <point x="211" y="0" type="line"/>
      <point x="264" y="262" type="line"/>
      <point x="289" y="262" type="line" smooth="yes"/>
      <point x="404" y="262"/>
      <point x="524" y="314"/>
      <point x="550" y="446" type="curve" smooth="yes"/>
      <point x="576" y="577"/>
      <point x="484" y="634"/>
      <point x="363" y="634" type="curve" smooth="yes"/>
      <point x="182" y="634" type="line"/>
    </contour>
    <contour>
      <point x="280" y="346" type="line"/>
      <point x="317" y="528" type="line"/>
      <point x="338" y="528" type="line" smooth="yes"/>
      <point x="384" y="528"/>
      <point x="409" y="500"/>
      <point x="396" y="436" type="curve" smooth="yes"/>
      <point x="386" y="384"/>
      <point x="348" y="346"/>
      <point x="301" y="346" type="curve" smooth="yes"/>
    </contour>
    <contour>
      <point x="27" y="134" type="line"/>
      <point x="422" y="134" type="line"/>
      <point x="439" y="218" type="line"/>
      <point x="117" y="218" type="line"/>
      <point x="42" y="212" type="line"/>
    </contour>
    <contour>
      <point x="52" y="262" type="line"/>
      <point x="179" y="262" type="line"/>
      <point x="196" y="346" type="line"/>
      <point x="142" y="346" type="line"/>
      <point x="68" y="340" type="line"/>
    </contour>
  </outline>
</glyph>
<glyph name="rupeeindian" format="1">
  <advance width="520"/>
  <outline>
    <contour>
      <point x="54" y="190" type="line"/>
      <point x="116" y="190" type="line" smooth="yes"/>
      <point x="270" y="190"/>
      <point x="422" y="274"/>
      <point x="422" y="454" type="curve" smooth="yes"/>
      <point x="422" y="494"/>
      <point x="410" y="530"/>
      <point x="388" y="554" type="curve"/>
      <point x="510" y="554" type="line"/>
      <point x="526" y="634" type="line"/>
      <point x="142" y="634" type="line"/>
      <point x="116" y="506" type="line"/>
      <point x="176" y="506" type="line" smooth="yes"/>
      <point x="234" y="506"/>
      <point x="266" y="490"/>
      <point x="266" y="440" type="curve" smooth="yes"/>
      <point x="266" y="364"/>
      <point x="212" y="316"/>
      <point x="128" y="316" type="curve" smooth="yes"/>
      <point x="78" y="316" type="line"/>
    </contour>
    <contour>
      <point x="92" y="378" type="line"/>
      <point x="476" y="378" type="line"/>
      <point x="492" y="458" type="line"/>
      <point x="180" y="458" type="line"/>
      <point x="106" y="452" type="line"/>
    </contour>
    <contour>
      <point x="220" y="0" type="line"/>
      <point x="388" y="0" type="line"/>
      <point x="266" y="300" type="line"/>
      <point x="142" y="222" type="line"/>
    </contour>
  </outline>
</glyph>
<glyph name="seagullbelowcmb" format="1">
  <advance width="0"/>
  <outline>
    <contour>
      <point x="-155" y="-250" type="line"/>
      <point x="-143" y="-193"/>
      <point x="-130" y="-179"/>
      <point x="-108" y="-179" type="curve" smooth="yes"/>
      <point x="-81" y="-179"/>
      <point x="-78" y="-200"/>
      <point x="-83" y="-225" type="curve" smooth="yes"/>
      <point x="-88" y="-248" type="line"/>
      <point x="-11" y="-248" type="line"/>
      <point x="-7" y="-225" type="line" smooth="yes"/>
      <point x="-2" y="-200"/>
      <point x="10" y="-179"/>
      <point x="35" y="-179" type="curve" smooth="yes"/>
      <point x="57" y="-179"/>
      <point x="66" y="-193"/>
      <point x="55" y="-250" type="curve"/>
      <point x="140" y="-238" type="line"/>
      <point x="161" y="-129"/>
      <point x="140" y="-74"/>
      <point x="62" y="-74" type="curve" smooth="yes"/>
      <point x="28" y="-74"/>
      <point x="-4" y="-92"/>
      <point x="-23" y="-126" type="curve"/>
      <point x="-27" y="-126" type="line"/>
      <point x="-33" y="-92"/>
      <point x="-56" y="-74"/>
      <point x="-92" y="-74" type="curve" smooth="yes"/>
      <point x="-168" y="-74"/>
      <point x="-213" y="-129"/>
      <point x="-235" y="-238" type="curve"/>
    </contour>
    <contour>
      <point x="-4" y="-20" type="move" name="_belowLC"/>
    </contour>
  </outline>
</glyph>
<glyph name="seven.cap" format="1">
  <advance width="520"/>
  <outline>
    <contour>
      <point x="92" y="0" type="curve"/>
      <point x="256" y="0" type="line"/>
      <point x="295.111829978" y="179.091010951"/>
      <point x="345.955339904" y="374.299566295"/>
      <point x="538" y="550" type="curve"/>
      <point x="558" y="650" type="line"/>
      <point x="126" y="650" type="line"/>
      <point x="100" y="516" type="line"/>
      <point x="354" y="516" type="line"/>
      <point x="227.050639723" y="389.050639723"/>
      <point x="153.848400484" y="220.592628393"/>
    </contour>
  </outline>
</glyph>
<glyph name="shcha" format="1">
  <advance width="870"/>
  <outline>
    <contour>
      <point x="628" y="-172" type="line"/>
      <point x="752" y="-172" type="line"/>
      <point x="809" y="19" type="line"/>
      <point x="830" y="134" type="line"/>
      <point x="652" y="134" type="line"/>
      <point x="625" y="0" type="line"/>
      <point x="655" y="0" type="line"/>
    </contour>
    <component base="mturned"/>
    <contour>
      <point x="435" y="520" type="move" name="aboveLC"/>
    </contour>
  </outline>
</glyph>
<glyph name="shook" format="1">
  <advance width="432"/>
  <outline>
    <contour>
      <point x="117" y="-188" type="curve" smooth="yes"/>
      <point x="161" y="-188"/>
      <point x="187" y="-182"/>
      <point x="210" y="-174" type="curve"/>
      <point x="205" y="-52" type="line"/>
      <point x="191" y="-56"/>
      <point x="181" y="-58"/>
      <point x="170" y="-58" type="curve" smooth="yes"/>
      <point x="135" y="-58"/>
      <point x="124" y="-34"/>
      <point x="135" y="20" type="curve"/>
      <point x="143" y="58" type="line"/>
      <point x="-2" y="54" type="line"/>
      <point x="-8" y="26" type="line" smooth="yes"/>
      <point x="-30" y="-86"/>
      <point x="-12" y="-188"/>
    </contour>
    <component base="s"/>
    <contour>
      <point x="337" y="522" type="move" name="aboveLC"/>
    </contour>
  </outline>
</glyph>
<glyph name="squarebelowcmb" format="1">
  <advance width="0"/>
  <outline>
    <contour>
      <point x="-175" y="-250" type="line"/>
      <point x="75" y="-250" type="line"/>
      <point x="112" y="-62" type="line"/>
      <point x="-137" y="-62" type="line"/>
    </contour>
    <contour>
      <point x="-84" y="-190" type="line"/>
      <point x="-70" y="-120" type="line"/>
      <point x="22" y="-120" type="line"/>
      <point x="8" y="-190" type="line"/>
    </contour>
    <contour>
      <point x="-4" y="-22" type="move" name="_belowLC"/>
    </contour>
  </outline>
</glyph>
<glyph name="tbar" format="1">
  <advance width="384"/>
  <outline>
    <contour>
      <point x="8" y="224" type="line"/>
      <point x="340" y="224" type="line"/>
      <point x="356" y="300" type="line"/>
      <point x="96" y="300" type="line"/>
      <point x="22" y="294" type="line"/>
    </contour>
    <component base="t"/>
    <contour>
      <point x="192" y="520" type="move" name="aboveLC"/>
    </contour>
    <contour>
      <point x="192" y="-20" type="move" name="belowLC"/>
    </contour>
  </outline>
</glyph>
<glyph name="tenge" format="1">
  <advance width="518"/>
  <outline>
    <contour>
      <point x="177" y="0" type="line"/>
      <point x="342" y="0" type="line"/>
      <point x="426" y="422" type="line"/>
      <point x="572" y="422" type="line"/>
      <point x="589" y="506" type="line"/>
      <point x="205" y="506" type="line"/>
      <point x="131" y="500" type="line"/>
      <point x="115" y="422" type="line"/>
      <point x="261" y="422" type="line"/>
    </contour>
    <contour>
      <point x="141" y="550" type="line"/>
      <point x="598" y="550" type="line"/>
      <point x="614" y="634" type="line"/>
      <point x="157" y="634" type="line"/>
    </contour>
  </outline>
</glyph>
<glyph name="tesh" format="1">
	<advance width="558"/>
	<outline>
		<contour>
			<point x="204" y="-12" type="curve" smooth="yes"/>
			<point x="254" y="-12"/>
			<point x="294" y="-4"/>
			<point x="320" y="6" type="curve"/>
			<point x="292" y="118" type="line"/>
			<point x="284" y="114"/>
			<point x="274" y="112"/>
			<point x="266" y="112" type="curve" smooth="yes"/>
			<point x="240" y="112"/>
			<point x="228" y="126"/>
			<point x="228" y="156" type="curve" smooth="yes"/>
			<point x="228" y="166"/>
			<point x="228" y="176"/>
			<point x="230" y="188" type="curve" smooth="yes"/>
			<point x="268" y="376" type="line"/>
			<point x="480" y="376" type="line"/>
			<point x="504" y="500" type="line"/>
			<point x="294" y="500" type="line"/>
			<point x="320" y="628" type="line"/>
			<point x="186" y="628" type="line"/>
			<point x="142" y="500" type="line"/>
			<point x="70" y="494" type="line"/>
			<point x="46" y="376" type="line"/>
			<point x="110" y="376" type="line"/>
			<point x="72" y="194" type="line" smooth="yes"/>
			<point x="68" y="172"/>
			<point x="64" y="150"/>
			<point x="64" y="128" type="curve" smooth="yes"/>
			<point x="64" y="46"/>
			<point x="106" y="-12"/>
		</contour>
		<contour>
			<point x="303" y="-188" type="curve" smooth="yes"/>
			<point x="441" y="-188"/>
			<point x="496" y="-86"/>
			<point x="518" y="26" type="curve" smooth="yes"/>
			<point x="613" y="500" type="line" smooth="yes"/>
			<point x="626" y="564"/>
			<point x="642" y="582"/>
			<point x="674" y="582" type="curve" smooth="yes"/>
			<point x="684" y="582"/>
			<point x="692" y="580"/>
			<point x="700" y="576" type="curve"/>
			<point x="752" y="694" type="line"/>
			<point x="734" y="702"/>
			<point x="714" y="708"/>
			<point x="675" y="708" type="curve" smooth="yes"/>
			<point x="530" y="708"/>
			<point x="472" y="606"/>
			<point x="450" y="494" type="curve" smooth="yes"/>
			<point x="356" y="20" type="line"/>
			<point x="344" y="-40"/>
			<point x="330" y="-62"/>
			<point x="304" y="-62" type="curve" smooth="yes"/>
			<point x="292" y="-62"/>
			<point x="282" y="-60"/>
			<point x="270" y="-56" type="curve"/>
			<point x="224" y="-174" type="line"/>
			<point x="242" y="-182"/>
			<point x="266" y="-188"/>
		</contour>
		<contour>
			<point name="aboveUC" x="279" y="730" type="move"/>
		</contour>
		<contour>
			<point name="belowLC" x="279" y="-119" type="move"/>
		</contour>
	</outline>
</glyph>
<glyph name="three" format="1">
  <advance width="520"/>
  <outline>
    <contour>
      <point x="208" y="-12" type="curve" smooth="yes"/>
      <point x="350" y="-12"/>
      <point x="460" y="56"/>
      <point x="460" y="186" type="curve" smooth="yes"/>
      <point x="460" y="240"/>
      <point x="432" y="290"/>
      <point x="364" y="318" type="curve"/>
      <point x="364" y="322" type="line"/>
      <point x="464" y="357"/>
      <point x="496" y="410"/>
      <point x="496" y="490" type="curve" smooth="yes"/>
      <point x="496" y="584"/>
      <point x="412" y="646"/>
      <point x="294" y="646" type="curve" smooth="yes"/>
      <point x="226" y="646"/>
      <point x="168" y="630"/>
      <point x="100" y="582" type="curve"/>
      <point x="170" y="484" type="line"/>
      <point x="210" y="508"/>
      <point x="236" y="520"/>
      <point x="264" y="520" type="curve" smooth="yes"/>
      <point x="306" y="520"/>
      <point x="332" y="498"/>
      <point x="332" y="464" type="curve" smooth="yes"/>
      <point x="332" y="414"/>
      <point x="300" y="378"/>
      <point x="176" y="378" type="curve"/>
      <point x="154" y="266" type="line"/>
      <point x="272" y="266"/>
      <point x="300" y="238"/>
      <point x="300" y="188" type="curve" smooth="yes"/>
      <point x="300" y="142"/>
      <point x="264" y="116"/>
      <point x="204" y="116" type="curve" smooth="yes"/>
      <point x="166" y="116"/>
      <point x="116" y="140"/>
      <point x="82" y="186" type="curve"/>
      <point x="-18" y="104" type="line"/>
      <point x="44" y="18"/>
      <point x="132" y="-12"/>
    </contour>
  </outline>
</glyph>
<glyph name="tildecmb.cap" format="1">
  <advance width="0"/>
  <outline>
    <contour>
      <point x="208" y="686" type="curve" smooth="yes"/>
      <point x="281" y="686"/>
      <point x="344" y="728"/>
      <point x="370" y="838" type="curve"/>
      <point x="262" y="846" type="line"/>
      <point x="252" y="812"/>
      <point x="238" y="804"/>
      <point x="222" y="804" type="curve" smooth="yes"/>
      <point x="194" y="804"/>
      <point x="166" y="856"/>
      <point x="96" y="856" type="curve" smooth="yes"/>
      <point x="23" y="856"/>
      <point x="-40" y="814"/>
      <point x="-66" y="704" type="curve"/>
      <point x="42" y="696" type="line"/>
      <point x="52" y="730"/>
      <point x="66" y="738"/>
      <point x="82" y="738" type="curve" smooth="yes"/>
      <point x="110" y="738"/>
      <point x="138" y="686"/>
    </contour>
    <contour>
      <point x="134" y="670" type="move" name="_aboveUC"/>
    </contour>
  </outline>
</glyph>
<glyph name="tildeoverlaycmb" format="1">
	<outline>
		<component base="tildecmb" xOffset="-80" yOffset="-398"/>
		<contour>
			<point name="_center" x="0" y="0" type="move"/>
		</contour>
	</outline>
</glyph>
<glyph name="tonos.cap" format="1">
  <advance width="134"/>
  <outline>
    <contour>
      <point x="80" y="450" type="line"/>
      <point x="180" y="430" type="line"/>
      <point x="285" y="650" type="line"/>
      <point x="151" y="670" type="line"/>
    </contour>
  </outline>
</glyph>
<glyph name="tonoscmb" format="1">
	<outline>
		<contour>
			<point x="161" y="545" type="line"/>
			<point x="282" y="755" type="line"/>
			<point x="129" y="796" type="line"/>
			<point x="55" y="574" type="line"/>
		</contour>
		<contour>
			<point name="_aboveLC" x="104" y="520" type="move"/>
		</contour>
	</outline>
</glyph>
<glyph name="ts" format="1">
	<advance width="626"/>
	<outline>
		<contour>
			<point x="332" y="108" type="curve" smooth="yes"/>
			<point x="262" y="108"/>
			<point x="226" y="129"/>
			<point x="226" y="176" type="curve" smooth="yes"/>
			<point x="226" y="193"/>
			<point x="230" y="207"/>
			<point x="234" y="228" type="curve" smooth="yes"/>
			<point x="264" y="376" type="line"/>
			<point x="376" y="376" type="line"/>
			<point x="400" y="500" type="line"/>
			<point x="290" y="500" type="line"/>
			<point x="316" y="628" type="line"/>
			<point x="182" y="628" type="line"/>
			<point x="138" y="500" type="line"/>
			<point x="66" y="494" type="line"/>
			<point x="42" y="376" type="line"/>
			<point x="106" y="376" type="line"/>
			<point x="76" y="234" type="line" smooth="yes"/>
			<point x="70" y="205"/>
			<point x="62" y="176"/>
			<point x="62" y="148" type="curve" smooth="yes"/>
			<point x="62" y="54"/>
			<point x="129" y="-12"/>
			<point x="290" y="-12" type="curve" smooth="yes"/>
			<point x="498" y="-12"/>
			<point x="582" y="58"/>
			<point x="582" y="166" type="curve" smooth="yes"/>
			<point x="582" y="284"/>
			<point x="462" y="309"/>
			<point x="462" y="358" type="curve" smooth="yes"/>
			<point x="462" y="380"/>
			<point x="473" y="394"/>
			<point x="492" y="394" type="curve" smooth="yes"/>
			<point x="514" y="394"/>
			<point x="528" y="382"/>
			<point x="548" y="362" type="curve"/>
			<point x="624" y="448" type="line"/>
			<point x="589" y="484"/>
			<point x="549" y="512"/>
			<point x="494" y="512" type="curve" smooth="yes"/>
			<point x="393" y="512"/>
			<point x="312" y="440"/>
			<point x="312" y="344" type="curve" smooth="yes"/>
			<point x="312" y="224"/>
			<point x="432" y="215"/>
			<point x="432" y="148" type="curve" smooth="yes"/>
			<point x="432" y="121"/>
			<point x="410" y="108"/>
		</contour>
		<contour>
			<point name="aboveLC" x="313" y="520" type="move"/>
		</contour>
		<contour>
			<point name="belowLC" x="313" y="-20" type="move"/>
		</contour>
	</outline>
</glyph>
<glyph name="tturned" format="1">
  <advance width="290"/>
  <outline>
    <component base="t" xScale="-1" yScale="-1" xOffset="290" yOffset="478"/>
    <contour>
      <point x="258" y="664" type="move" name="aboveLC"/>
    </contour>
    <contour>
      <point x="183" y="-20" type="move" name="belowLC"/>
    </contour>
  </outline>
</glyph>
<glyph name="tugrik" format="1">
  <advance width="518"/>
  <outline>
    <contour>
      <point x="177" y="0" type="line"/>
      <point x="342" y="0" type="line"/>
      <point x="444" y="510" type="line"/>
      <point x="590" y="510" type="line"/>
      <point x="614" y="634" type="line"/>
      <point x="157" y="634" type="line"/>
      <point x="133" y="510" type="line"/>
      <point x="279" y="510" type="line"/>
    </contour>
    <contour>
      <point x="86" y="48" type="line"/>
      <point x="197" y="104" type="line"/>
      <point x="379" y="188" type="line"/>
      <point x="490" y="244" type="line"/>
      <point x="509" y="336" type="line"/>
      <point x="398" y="280" type="line"/>
      <point x="407" y="328" type="line"/>
      <point x="518" y="384" type="line"/>
      <point x="537" y="476" type="line"/>
      <point x="426" y="420" type="line"/>
      <point x="244" y="336" type="line"/>
      <point x="133" y="280" type="line"/>
      <point x="114" y="188" type="line"/>
      <point x="225" y="244" type="line"/>
      <point x="216" y="196" type="line"/>
      <point x="105" y="140" type="line"/>
    </contour>
  </outline>
</glyph>
<glyph name="ubar" format="1">
  <advance width="552"/>
  <outline>
    <contour>
      <point x="22" y="270" type="line"/>
      <point x="596" y="270" type="line"/>
      <point x="612" y="346" type="line"/>
      <point x="110" y="346" type="line"/>
      <point x="36" y="340" type="line"/>
    </contour>
    <component base="u" xOffset="34"/>
    <contour>
      <point x="276" y="520" type="move" name="aboveLC"/>
    </contour>
    <contour>
      <point x="276" y="0" type="move" name="baseLC"/>
    </contour>
    <contour>
      <point x="276" y="-20" type="move" name="belowLC"/>
    </contour>
  </outline>
</glyph>
<glyph name="upsilonlatin" format="1">
  <advance width="541"/>
  <outline>
    <contour>
      <point x="268" y="-12" type="curve"/>
      <point x="419" y="-12"/>
      <point x="525" y="95"/>
      <point x="545" y="198" type="curve" smooth="yes"/>
      <point x="559" y="270"/>
      <point x="540" y="328"/>
      <point x="514" y="363" type="curve"/>
      <point x="515" y="366" type="line"/>
      <point x="588" y="366" type="line"/>
      <point x="614" y="500" type="line"/>
      <point x="398" y="500" type="line"/>
      <point x="376" y="389" type="line"/>
      <point x="397" y="342"/>
      <point x="401" y="304"/>
      <point x="387" y="235" type="curve" smooth="yes"/>
      <point x="375" y="172"/>
      <point x="345" y="126"/>
      <point x="295" y="126" type="curve"/>
      <point x="245" y="126"/>
      <point x="233" y="172"/>
      <point x="245" y="235" type="curve" smooth="yes"/>
      <point x="259" y="304"/>
      <point x="278" y="342"/>
      <point x="317" y="389" type="curve"/>
      <point x="338" y="500" type="line"/>
      <point x="122" y="500" type="line"/>
      <point x="96" y="366" type="line"/>
      <point x="169" y="366" type="line"/>
      <point x="168" y="363" type="line"/>
      <point x="129" y="328"/>
      <point x="87" y="270"/>
      <point x="73" y="198" type="curve" smooth="yes"/>
      <point x="53" y="95"/>
      <point x="118" y="-12"/>
    </contour>
    <contour>
      <point x="372" y="522" type="move" name="aboveLC"/>
    </contour>
    <contour>
      <point x="266" y="-22" type="move" name="belowLC"/>
    </contour>
  </outline>
</glyph>
<glyph name="uptackbelowcmb" format="1">
  <advance width="0"/>
  <outline>
    <contour>
      <point x="-155" y="-236" type="line"/>
      <point x="60" y="-236" type="line"/>
      <point x="76" y="-156" type="line"/>
      <point x="11" y="-156" type="line"/>
      <point x="32" y="-52" type="line"/>
      <point x="-53" y="-52" type="line"/>
      <point x="-73" y="-156" type="line"/>
      <point x="-139" y="-156" type="line"/>
    </contour>
    <contour>
      <point x="-4" y="-20" type="move" name="_belowLC"/>
    </contour>
  </outline>
</glyph>
<glyph name="ustraightstroke" format="1">
  <advance width="518"/>
  <outline>
    <component base="ustraight"/>
    <contour>
      <point x="259" y="520" type="move" name="aboveLC"/>
    </contour>
  </outline>
</glyph>
<glyph name="variacmb" format="1">
  <advance width="0"/>
  <outline>
    <contour>
      <point x="61" y="554" type="line"/>
      <point x="174" y="574" type="line"/>
      <point x="191" y="802" type="line"/>
      <point x="26" y="774" type="line"/>
    </contour>
    <contour>
      <point x="104" y="522" type="move" name="_aboveLC"/>
    </contour>
  </outline>
</glyph>
<glyph name="verticallinebelowcmb" format="1">
  <advance width="0"/>
  <outline>
    <contour>
      <point x="-118" y="-270" type="line"/>
      <point x="10" y="-270" type="line"/>
      <point x="40" y="-62" type="line"/>
      <point x="-68" y="-62" type="line"/>
    </contour>
    <contour>
      <point x="-4" y="-20" type="move" name="_belowLC"/>
    </contour>
  </outline>
</glyph>
<glyph name="vhook" format="1">
  <advance width="538"/>
  <outline>
    <contour>
      <point x="265" y="-12" type="curve" smooth="yes"/>
      <point x="424" y="-12"/>
      <point x="529" y="112"/>
      <point x="566" y="304" type="curve" smooth="yes"/>
      <point x="594" y="450"/>
      <point x="530" y="512"/>
      <point x="434" y="512" type="curve" smooth="yes"/>
      <point x="402" y="512"/>
      <point x="382" y="510"/>
      <point x="363" y="504" type="curve"/>
      <point x="356" y="378" type="line"/>
      <point x="361" y="379"/>
      <point x="366" y="380"/>
      <point x="371" y="380" type="curve" smooth="yes"/>
      <point x="400" y="380"/>
      <point x="406" y="350"/>
      <point x="392" y="278" type="curve" smooth="yes"/>
      <point x="373" y="180"/>
      <point x="339" y="126"/>
      <point x="299" y="126" type="curve" smooth="yes"/>
      <point x="260" y="126"/>
      <point x="247" y="157"/>
      <point x="260" y="223" type="curve" smooth="yes"/>
      <point x="314" y="500" type="line"/>
      <point x="149" y="500" type="line"/>
      <point x="95" y="222" type="line" smooth="yes"/>
      <point x="65" y="70"/>
      <point x="130" y="-12"/>
    </contour>
    <contour>
      <point x="378" y="520" type="move" name="aboveLC"/>
    </contour>
    <contour>
      <point x="272" y="-20" type="move" name="belowLC"/>
    </contour>
  </outline>
</glyph>
<glyph name="xabovecmb" format="1">
  <advance width="0"/>
  <outline>
    <contour>
      <point x="58" y="535" type="line"/>
      <point x="117" y="586" type="line"/>
      <point x="156" y="535" type="line"/>
      <point x="221" y="591" type="line"/>
      <point x="182" y="642" type="line"/>
      <point x="241" y="693" type="line"/>
      <point x="199" y="749" type="line"/>
      <point x="139" y="698" type="line"/>
      <point x="101" y="749" type="line"/>
      <point x="36" y="693" type="line"/>
      <point x="75" y="642" type="line"/>
      <point x="15" y="591" type="line"/>
    </contour>
    <contour>
      <point x="104" y="520" type="move" name="_aboveLC"/>
    </contour>
  </outline>
</glyph>
<glyph name="zcurl" format="1">
	<advance width="503"/>
	<outline>
		<contour>
			<point x="277" y="-82" type="line"/>
			<point x="351" y="108"/>
			<point x="410" y="182"/>
			<point x="443" y="182" type="curve" smooth="yes"/>
			<point x="460" y="182"/>
			<point x="467" y="175"/>
			<point x="464" y="159" type="curve" smooth="yes"/>
			<point x="460" y="141"/>
			<point x="441" y="124"/>
			<point x="408" y="124" type="curve" smooth="yes"/>
			<point x="357" y="124"/>
			<point x="310" y="128"/>
			<point x="259" y="134" type="curve"/>
			<point x="496" y="408" type="line"/>
			<point x="515" y="500" type="line"/>
			<point x="159" y="500" type="line"/>
			<point x="133" y="366" type="line"/>
			<point x="294" y="366" type="line"/>
			<point x="57" y="92" type="line"/>
			<point x="38" y="0" type="line"/>
			<point x="339" y="0" type="line" smooth="yes"/>
			<point x="464" y="0"/>
			<point x="530" y="70"/>
			<point x="547" y="154" type="curve" smooth="yes"/>
			<point x="563" y="232"/>
			<point x="530" y="270"/>
			<point x="465" y="270" type="curve" smooth="yes"/>
			<point x="372" y="270"/>
			<point x="279" y="120"/>
			<point x="205" y="-66" type="curve"/>
		</contour>
		<contour>
			<point name="aboveLC" x="346" y="520" type="move"/>
		</contour>
	</outline>
</glyph>
<glyph name="zedescender" format="1">
  <advance width="462"/>
  <outline>
    <contour>
      <point x="211" y="-172" type="line"/>
      <point x="232" y="-30" type="line"/>
      <point x="108" y="-30" type="line"/>
      <point x="53" y="-172" type="line"/>
    </contour>
    <component base="ze"/>
  </outline>
</glyph>
<glyph name="zero.cap" format="1">
	<advance width="520"/>
	<outline>
		<contour>
			<point x="224" y="-12" type="curve" smooth="yes"/>
			<point x="360" y="-12"/>
			<point x="512" y="117"/>
			<point x="512" y="422" type="curve" smooth="yes"/>
			<point x="512" y="588"/>
			<point x="432" y="662"/>
			<point x="326" y="662" type="curve" smooth="yes"/>
			<point x="190" y="662"/>
			<point x="36" y="531"/>
			<point x="36" y="226" type="curve" smooth="yes"/>
			<point x="36" y="62"/>
			<point x="118" y="-12"/>
		</contour>
		<contour>
			<point x="234" y="110" type="curve" smooth="yes"/>
			<point x="202" y="110"/>
			<point x="184" y="129"/>
			<point x="184" y="208" type="curve" smooth="yes"/>
			<point x="184" y="403"/>
			<point x="254" y="540"/>
			<point x="316" y="540" type="curve" smooth="yes"/>
			<point x="348" y="540"/>
			<point x="366" y="519"/>
			<point x="366" y="440" type="curve" smooth="yes"/>
			<point x="366" y="245"/>
			<point x="296" y="110"/>
		</contour>
	</outline>
</glyph>
<glyph name="zretroflex" format="1">
  <advance width="455"/>
  <outline>
    <contour>
      <point x="354" y="-188" type="curve" smooth="yes"/>
      <point x="394" y="-188"/>
      <point x="417" y="-182"/>
      <point x="438" y="-174" type="curve"/>
      <point x="434" y="-48" type="line"/>
      <point x="424" y="-52"/>
      <point x="417" y="-54"/>
      <point x="408" y="-54" type="curve" smooth="yes"/>
      <point x="380" y="-54"/>
      <point x="373" y="-37"/>
      <point x="382" y="10" type="curve"/>
      <point x="404" y="124" type="line"/>
      <point x="214" y="124" type="line"/>
      <point x="454" y="408" type="line"/>
      <point x="472" y="500" type="line"/>
      <point x="108" y="500" type="line"/>
      <point x="84" y="376" type="line"/>
      <point x="248" y="376" type="line"/>
      <point x="8" y="90" type="line"/>
      <point x="-10" y="0" type="line"/>
      <point x="215" y="0" type="line"/>
      <point x="214" y="-4" type="line" smooth="yes"/>
      <point x="197" y="-90"/>
      <point x="222" y="-188"/>
    </contour>
    <contour>
      <point x="346" y="522" type="move" name="aboveLC"/>
    </contour>
  </outline>
</glyph>
